<?xml version="1.0" encoding="UTF-8"?>
<svg width="12px" height="35px" viewBox="0 0 12 35" version="1.1" xmlns="http://www.w3.org/2000/svg" xmlns:xlink="http://www.w3.org/1999/xlink">
    <!-- Generator: Sketch 56.3 (81716) - https://sketch.com -->
    <title>Group 5</title>
    <desc>Created with Sketch.</desc>
    <g id="Home-v3" stroke="none" stroke-width="1" fill="none" fill-rule="evenodd">
        <g id="Home---2" transform="translate(-860.000000, -992.000000)" fill="#FFFFFF">
            <g id="Group-5" transform="translate(860.000000, 992.000000)">
                <path d="M11.6444636,14.9510769 L11.6444636,33.8008352 C11.6444636,34.2640879 11.1532438,34.6015385 10.6389031,34.5022418 C7.56543318,33.9084396 5.07404448,32.8138022 3.16676515,31.2175385 C1.05667007,29.4515604 3.33955086e-13,27.1305495 3.33955086e-13,24.2560879 C3.33955086e-13,21.3816264 1.0724897,19.0772308 3.21746909,17.3397363 C5.15719894,15.769978 7.63925811,14.7382418 10.6644579,14.2445275 C11.1719029,14.1618462 11.6444636,14.4973187 11.6444636,14.9510769 Z M5.83371116,-1.66977543e-13 C6.64132349,-1.66977543e-13 7.39742061,0.138065934 8.09997437,0.414197802 C8.80293377,0.69032967 9.42354997,1.08514286 9.96222861,1.59824176 C10.5005016,2.11094505 10.9268203,2.72887912 11.2411847,3.45283516 C11.5551435,4.176 11.7121229,4.97195604 11.7121229,5.83991209 L11.7121229,5.91903297 C11.7121229,6.8130989 11.5551435,7.61578022 11.2411847,8.32589011 C10.9268203,9.0363956 10.5005016,9.648 9.96222861,10.1610989 C9.42354997,10.6741978 8.80293377,11.0686154 8.09997437,11.3451429 C7.39742061,11.6208791 6.64132349,11.7593407 5.83371116,11.7593407 C5.02609884,11.7593407 4.27081298,11.6208791 3.56785358,11.3451429 C2.86489418,11.0686154 2.25157935,10.6741978 1.72750345,10.1610989 C1.20464444,9.648 0.785627097,9.02967033 0.471262681,8.30650549 C0.157303897,7.58254945 0.000324505203,6.78738462 0.000324505203,5.91903297 L0.000324505203,5.83991209 C0.000324505203,4.97195604 0.157303897,4.176 0.471262681,3.45283516 C0.785627097,2.72887912 1.20464444,2.11094505 1.72750345,1.59824176 C2.25157935,1.08514286 2.86489418,0.69032967 3.56785358,0.414197802 C4.27081298,0.138065934 5.02609884,-1.66977543e-13 5.83371116,-1.66977543e-13 Z" id="Combined-Shape"></path>
            </g>
        </g>
    </g>
</svg>