<?xml version="1.0" encoding="UTF-8"?>
<svg width="62px" height="62px" viewBox="0 0 62 62" version="1.1" xmlns="http://www.w3.org/2000/svg" xmlns:xlink="http://www.w3.org/1999/xlink">
    <!-- Generator: Sketch 51.3 (57544) - http://www.bohemiancoding.com/sketch -->
    <title>Group 25</title>
    <desc>Created with Sketch.</desc>
    <defs></defs>
    <g id="Home" stroke="none" stroke-width="1" fill="none" fill-rule="evenodd">
        <g id="Home---3" transform="translate(-1337.000000, -835.000000)">
            <g id="Group-33" transform="translate(1134.000000, 827.000000)">
                <g id="Group-25" transform="translate(203.000000, 8.000000)">
                    <circle id="Oval-4" fill="#40CC79" cx="31" cy="31" r="31"></circle>
                    <g id="Group" transform="translate(19.000000, 15.000000)" fill="#FFFFFF">
                        <path d="M0.0605912059,18.3005308 C0.0605912059,18.7164758 0.482520404,19.0239923 0.935596307,18.9482011 C3.63630535,18.4956297 5.85279178,17.5498714 7.58469343,16.1109264 C9.49949143,14.5182231 10.4574337,12.4058604 10.4574337,9.77093736 C10.4574337,7.13601429 9.51397827,5.00842088 7.6299648,3.38960769 C5.92667466,1.92636593 3.70258264,0.922948352 0.958413079,0.37862967 C0.498818098,0.287607692 0.0605912059,0.596937363 0.0605912059,1.02158571 L0.0605912059,18.3005308 Z" id="Fill-1"></path>
                        <path d="M5.24858192,32.0056846 C5.96966435,32.0056846 6.64402673,31.8791242 7.27203122,31.6260033 C7.89931137,31.3728824 8.4469139,31.0109703 8.91483881,30.5406297 C9.38167721,30.0706516 9.75616201,29.5042121 10.0364824,28.8405857 C10.3171649,28.1776846 10.457325,27.4480582 10.457325,26.6524319 L10.457325,26.5799044 C10.457325,25.7839154 10.3171649,25.0550143 10.0364824,24.3913879 C9.75616201,23.7284868 9.38167721,23.1616846 8.91483881,22.691344 C8.4469139,22.2210033 7.89931137,21.8594538 7.27203122,21.6059703 C6.64402673,21.3532121 5.96966435,21.226289 5.24858192,21.226289 C4.52749949,21.226289 3.85277494,21.3532121 3.2254948,21.6059703 C2.59749031,21.8594538 2.0433687,22.2210033 1.56240563,22.691344 C1.08180473,23.1616846 0.701163028,23.722322 0.420480514,24.3736187 C0.140160171,25.0245527 0,25.760344 0,26.5799044 L0,26.6524319 C0,27.4480582 0.140160171,28.1776846 0.420480514,28.8405857 C0.701163028,29.5042121 1.08180473,30.0706516 1.56240563,30.5406297 C2.0433687,31.0109703 2.59749031,31.3728824 3.2254948,31.6260033 C3.85277494,31.8791242 4.52749949,32.0056846 5.24858192,32.0056846" id="Fill-4"></path>
                        <path d="M24.1594848,14.7931747 C24.1594848,14.3772297 23.7375556,14.0697132 23.2844797,14.1455044 C20.5834085,14.5980758 18.3672842,15.5438341 16.6353826,16.9827791 C14.7202224,18.5754824 13.7626423,20.6878451 13.7626423,23.3227681 C13.7626423,25.9576912 14.7060977,28.0852846 16.5901112,29.7040978 C18.2930392,31.1673396 20.5174934,32.1707571 23.2616629,32.7150758 C23.7208957,32.8060978 24.1594848,32.4967681 24.1594848,32.0721198 L24.1594848,14.7931747 Z" id="Fill-6"></path>
                        <path d="M18.971313,1.08802088 C18.2502306,1.08802088 17.5758682,1.21458132 16.9482259,1.4677022 C16.3205836,1.72082308 15.772981,2.08273516 15.3050561,2.55307582 C14.8382177,3.02305385 14.4640951,3.58949341 14.1834126,4.25311978 C13.9030922,4.91602088 13.7629321,5.64564725 13.7629321,6.44127363 L13.7629321,6.5138011 C13.7629321,7.30979011 13.9030922,8.03869121 14.1834126,8.70231758 C14.4640951,9.36521868 14.8382177,9.93202088 15.3050561,10.4023615 C15.772981,10.8727022 16.3205836,11.2342516 16.9482259,11.4877352 C17.5758682,11.7404934 18.2502306,11.8674165 18.971313,11.8674165 C19.6923954,11.8674165 20.3674821,11.7404934 20.9947623,11.4877352 C21.6224046,11.2342516 22.1765262,10.8727022 22.6574893,10.4023615 C23.1380902,9.93202088 23.5187319,9.37138352 23.7994144,8.72008681 C24.0797347,8.06915275 24.2198949,7.33336154 24.2198949,6.5138011 L24.2198949,6.44127363 C24.2198949,5.64564725 24.0797347,4.91602088 23.7994144,4.25311978 C23.5187319,3.58949341 23.1380902,3.02305385 22.6574893,2.55307582 C22.1765262,2.08273516 21.6224046,1.72082308 20.9947623,1.4677022 C20.3674821,1.21458132 19.6923954,1.08802088 18.971313,1.08802088" id="Fill-8"></path>
                    </g>
                </g>
            </g>
        </g>
    </g>
</svg>