<?xml version="1.0" encoding="UTF-8"?>
<svg width="41px" height="41px" viewBox="0 0 41 41" version="1.1" xmlns="http://www.w3.org/2000/svg" xmlns:xlink="http://www.w3.org/1999/xlink">
    <!-- Generator: Sketch 51.3 (57544) - http://www.bohemiancoding.com/sketch -->
    <title>button-icon</title>
    <desc>Created with Sketch.</desc>
    <defs></defs>
    <g id="About-/-pricing" stroke="none" stroke-width="1" fill="none" fill-rule="evenodd">
        <g id="About" transform="translate(-227.000000, -1925.000000)">
            <g id="Group-16" transform="translate(215.000000, 1914.000000)">
                <g id="button-icon" transform="translate(12.000000, 11.000000)">
                    <rect id="Rectangle-7" fill="#073763" x="0" y="0" width="41" height="41" rx="5"></rect>
                    <rect id="Rectangle-7" stroke="#FFFFFF" fill-opacity="0" fill="#40CC79" x="4.5" y="4.5" width="33" height="33" rx="3"></rect>
                    <path d="M23.9121094,19.90625 C24.4069035,19.4114559 24.6542969,18.8177118 24.6542969,18.125 C24.6542969,17.2591103 24.3450552,16.5169302 23.7265625,15.8984375 C23.1080698,15.2799448 22.3658897,14.9707031 21.5,14.9707031 C20.6341103,14.9707031 19.8919302,15.2799448 19.2734375,15.8984375 C18.6549448,16.5169302 18.3457031,17.2591103 18.3457031,18.125 L19.9042969,18.125 C19.9042969,17.704425 20.0651026,17.3333349 20.3867188,17.0117188 C20.7083349,16.6901026 21.079425,16.5292969 21.5,16.5292969 C21.920575,16.5292969 22.2916651,16.6901026 22.6132812,17.0117188 C22.9348974,17.3333349 23.0957031,17.704425 23.0957031,18.125 C23.0957031,18.545575 22.9348974,18.9166651 22.6132812,19.2382812 L21.6484375,20.2402344 C21.0299448,20.9082065 20.7207031,21.6503865 20.7207031,22.4667969 L20.7207031,22.875 L22.2792969,22.875 C22.2792969,22.0585897 22.5885386,21.3164096 23.2070312,20.6484375 L23.9121094,19.90625 Z M22.2792969,26.0292969 L22.2792969,24.4707031 L20.7207031,24.4707031 L20.7207031,26.0292969 L22.2792969,26.0292969 Z M21.5,12.5957031 C23.6770942,12.5957031 25.5387292,13.3688074 27.0849609,14.9150391 C28.6311926,16.4612708 29.4042969,18.3229058 29.4042969,20.5 C29.4042969,22.6770942 28.6311926,24.5387292 27.0849609,26.0849609 C25.5387292,27.6311926 23.6770942,28.4042969 21.5,28.4042969 C19.3229058,28.4042969 17.4612708,27.6311926 15.9150391,26.0849609 C14.3688074,24.5387292 13.5957031,22.6770942 13.5957031,20.5 C13.5957031,18.3229058 14.3688074,16.4612708 15.9150391,14.9150391 C17.4612708,13.3688074 19.3229058,12.5957031 21.5,12.5957031 Z" id="help" fill="#FFFFFF"></path>
                </g>
            </g>
        </g>
    </g>
</svg>