<?xml version="1.0" encoding="UTF-8"?>
<svg width="53px" height="44px" viewBox="0 0 53 44" version="1.1" xmlns="http://www.w3.org/2000/svg" xmlns:xlink="http://www.w3.org/1999/xlink">
    <title>Group 35</title>
    <g id="Marketing-2.0" stroke="none" stroke-width="1" fill="none" fill-rule="evenodd">
        <g id="Homt" transform="translate(-835.000000, -3307.000000)">
            <g id="Group-35" transform="translate(835.000000, 3307.000000)">
                <path d="M30.862418,-6.78656058 C30.862418,-7.66908352 29.9587728,-8.32155035 28.9884206,-8.1607419 C23.2035396,-7.2005077 18.4572689,-5.19386444 14.7480571,-2.14081211 C10.6463608,1.23847363 8.59551269,5.72033597 8.59551269,11.3109303 C8.59551269,16.9015246 10.61611,21.4157025 14.6510995,24.8503864 C18.2982583,27.9549897 23.0623693,30.0839705 28.939554,31.2388676 C29.9230923,31.4319916 30.862418,30.7756777 30.862418,29.8746887 L30.862418,-6.78656058 Z" id="Fill-6" fill-opacity="0.22486413" fill="#FFBB5A" transform="translate(19.728965, 11.543780) scale(-1, 1) rotate(90.000000) translate(-19.728965, -11.543780) "></path>
                <g id="Group-165" transform="translate(6.925926, 1.669587)" stroke="#000000" stroke-linecap="round" stroke-linejoin="round" stroke-width="1.92">
                    <polyline id="Stroke-2933" points="27.0740741 27.0740741 19.5185185 21.1055599 19.5185185 5.66666667"></polyline>
                    <path d="M40.2741271,19.188259 C40.8090997,30.7521296 31.5924535,40.2962963 20.1467551,40.2962963 C9.01893895,40.2962963 0,31.2735311 0,20.145777 C0,8.86877413 9.26510385,-0.2431527 20.5983805,0.00494911596" id="Stroke-2934"></path>
                    <path d="M20.1481481,0 C28.9568336,0 36.4294471,5.80746546 39.037037,13.8518519" id="Stroke-2935" stroke-dasharray="0.6296296296296297,3.777777777777778"></path>
                    <polyline id="Stroke-2936" points="44.0740741 22.6666667 40.2865848 18.8888889 35.8888889 22.6666667"></polyline>
                </g>
            </g>
        </g>
    </g>
</svg>