<?xml version="1.0" encoding="UTF-8"?>
<svg width="52px" height="60px" viewBox="0 0 52 60" version="1.1" xmlns="http://www.w3.org/2000/svg" xmlns:xlink="http://www.w3.org/1999/xlink">
    <title>Group 33</title>
    <g id="Marketing-2.0" stroke="none" stroke-width="1" fill="none" fill-rule="evenodd">
        <g id="Homt" transform="translate(-154.000000, -2450.000000)">
            <g id="Group-33" transform="translate(154.000000, 2451.000000)">
                <path d="M33.8461538,27.1023816 C33.8461538,26.0184824 33.0969396,25.2171341 32.2924186,25.4146362 C27.4961615,26.593979 23.5610184,29.0585031 20.485703,32.8082084 C17.0849779,36.9585879 15.3846154,42.4631326 15.3846154,49.3294025 C15.3846154,56.1956723 17.0598969,61.7399065 20.4053152,65.958325 C23.4291824,69.7713444 27.3791169,72.3861212 32.2519032,73.8045455 C33.0673569,74.0417371 33.8461538,73.2356638 33.8461538,72.129085 L33.8461538,27.1023816 Z" id="Fill-6" fill-opacity="0.155230978" fill="#FF5071" transform="translate(24.615385, 49.615385) scale(-1, 1) rotate(90.000000) translate(-24.615385, -49.615385) "></path>
                <g id="Group-12" transform="translate(6.923077, 0.000000)" stroke="#212225" stroke-linecap="round" stroke-linejoin="round" stroke-width="1.92307692">
                    <g id="Group-11" transform="translate(0.000000, 7.692308)">
                        <path d="M33.7988166,11.9289941 C33.7988166,18.5181137 28.4589421,23.8579882 21.8698225,23.8579882 C15.2807029,23.8579882 9.9408284,18.5181137 9.9408284,11.9289941 C9.9408284,5.33987445 15.2807029,0 21.8698225,0 C28.4589421,0 33.7988166,5.33987445 33.7988166,11.9289941 Z" id="Stroke-2687"></path>
                        <path d="M17.8934911,15.7982695 C18.856155,16.6165683 20.3430778,17.2307692 21.4153429,17.2307692 C23.1306016,17.2307692 24.5207101,16.0443313 24.5207101,14.5794048 C24.5207101,13.1163857 23.0356139,12.3915523 21.4153429,11.9299478 C19.7347912,11.4149346 18.308149,10.7435099 18.308149,9.27858337 C18.308149,7.81556429 19.6982575,6.62721893 21.4153429,6.62721893 C22.5698088,6.62721893 23.5781398,7.1670291 24.113359,7.96434589" id="Stroke-2688"></path>
                        <line x1="21.8698225" y1="5.30177515" x2="21.8698225" y2="18.556213" id="Stroke-2689"></line>
                        <path d="M26.5088757,42.4142012 L42.1765262,42.4142012 C42.6732327,42.4142012 43.0769231,42.0113802 43.0769231,41.5134487 L43.0769231,36.4278338 C43.0769231,36.1835303 42.9783259,35.9485514 42.8034554,35.7788445 C38.8614284,31.9427206 27.9785319,27.8343195 27.9785319,27.8343195 C27.9673699,27.8343195 27.9524873,27.8380494 27.9413254,27.8380494" id="Stroke-2690"></path>
                        <path d="M15.2479215,27.8380494 C15.2291963,27.8380494 15.2142162,27.8343195 15.1973635,27.8343195 C15.1973635,27.8343195 4.33113624,31.8569346 0.27526028,35.7788445 C0.0992435024,35.9504164 0,36.1816654 0,36.4278338 L0,41.5115838 C0,42.0113802 0.406336604,42.4142012 0.906299154,42.4142012 L16.5680473,42.4142012" id="Stroke-2691"></path>
                        <path d="M24.776604,29.2677655 C25.8488635,29.7651222 24.5468341,32.4088656 23.7943377,33.7553215 C22.2950892,33.5378462 20.7460571,33.5529749 19.250638,33.7988166 C18.4962269,32.4618161 17.2956792,29.9901618 18.2415652,29.2677655 C18.2415652,29.2677655 21.037099,27.5336363 24.776604,29.2677655 Z" id="Stroke-2692"></path>
                        <polyline id="Stroke-2693" points="23.1952663 36.4497041 23.2370178 36.8751984 23.7400237 43.0769231"></polyline>
                        <line x1="19.2189349" y1="42.4142012" x2="19.759716" y2="36.4497041" id="Stroke-2694"></line>
                    </g>
                    <g id="Group-672" transform="translate(22.076923, 3.500000) rotate(90.000000) translate(-22.076923, -3.500000) translate(18.576923, -7.500000)">
                        <line x1="4.1025641" y1="0" x2="6.15384615" y2="1.77594406" id="Stroke-1060"></line>
                        <line x1="0" y1="14.0528671" x2="2.73504274" y2="13.7062937" id="Stroke-1061"></line>
                        <line x1="2.73504274" y1="20.9941259" x2="5.47008547" y2="19.5804196" id="Stroke-1062"></line>
                        <line x1="0.683760684" y1="6.52680653" x2="3.41880342" y2="7.30219114" id="Stroke-1063"></line>
                    </g>
                </g>
            </g>
        </g>
    </g>
</svg>