<?xml version="1.0" encoding="UTF-8"?>
<svg width="731px" height="83px" viewBox="0 0 731 83" version="1.1" xmlns="http://www.w3.org/2000/svg" xmlns:xlink="http://www.w3.org/1999/xlink">
    <title>guide-2</title>
    <g id="Marketing-2.0" stroke="none" stroke-width="1" fill="none" fill-rule="evenodd">
        <g id="guide-2" transform="translate(365.500000, 41.500000) scale(-1, 1) translate(-365.500000, -41.500000) translate(1.000000, 1.000000)" fill="#000000" fill-rule="nonzero">
            <path d="M725.809016,70.9609715 L725.809016,69.9609715 C725.809016,69.1325444 725.137443,68.4609715 724.309016,68.4609715 C723.480589,68.4609715 722.809016,69.1325444 722.809016,69.9609715 L722.809016,70.9609715 C722.809016,71.7893987 723.480589,72.4609715 724.309016,72.4609715 C725.137443,72.4609715 725.809016,71.7893987 725.809016,70.9609715 Z M725.809016,60.9609715 L725.809016,59.9609715 C725.809016,59.1325444 725.137443,58.4609715 724.309016,58.4609715 C723.480589,58.4609715 722.809016,59.1325444 722.809016,59.9609715 L722.809016,60.9609715 C722.809016,61.7893987 723.480589,62.4609715 724.309016,62.4609715 C725.137443,62.4609715 725.809016,61.7893987 725.809016,60.9609715 Z M725.809016,50.9609715 L725.809016,49.9609715 C725.809016,49.1325444 725.137443,48.4609715 724.309016,48.4609715 C723.480589,48.4609715 722.809016,49.1325444 722.809016,49.9609715 L722.809016,50.9609715 C722.809016,51.7893987 723.480589,52.4609715 724.309016,52.4609715 C725.137443,52.4609715 725.809016,51.7893987 725.809016,50.9609715 Z M724.309016,39.4609715 L723.309016,39.4609715 C722.480589,39.4609715 721.809016,40.1325444 721.809016,40.9609715 C721.809016,41.7893987 722.480589,42.4609715 723.309016,42.4609715 L724.309016,42.4609715 C725.137443,42.4609715 725.809016,41.7893987 725.809016,40.9609715 C725.809016,40.1325444 725.137443,39.4609715 724.309016,39.4609715 Z M714.309016,39.4609715 L713.309016,39.4609715 C712.480589,39.4609715 711.809016,40.1325444 711.809016,40.9609715 C711.809016,41.7893987 712.480589,42.4609715 713.309016,42.4609715 L714.309016,42.4609715 C715.137443,42.4609715 715.809016,41.7893987 715.809016,40.9609715 C715.809016,40.1325444 715.137443,39.4609715 714.309016,39.4609715 Z M704.309016,39.4609715 L703.309016,39.4609715 C702.480589,39.4609715 701.809016,40.1325444 701.809016,40.9609715 C701.809016,41.7893987 702.480589,42.4609715 703.309016,42.4609715 L704.309016,42.4609715 C705.137443,42.4609715 705.809016,41.7893987 705.809016,40.9609715 C705.809016,40.1325444 705.137443,39.4609715 704.309016,39.4609715 Z M694.309016,39.4609715 L693.309016,39.4609715 C692.480589,39.4609715 691.809016,40.1325444 691.809016,40.9609715 C691.809016,41.7893987 692.480589,42.4609715 693.309016,42.4609715 L694.309016,42.4609715 C695.137443,42.4609715 695.809016,41.7893987 695.809016,40.9609715 C695.809016,40.1325444 695.137443,39.4609715 694.309016,39.4609715 Z M684.309016,39.4609715 L683.309016,39.4609715 C682.480589,39.4609715 681.809016,40.1325444 681.809016,40.9609715 C681.809016,41.7893987 682.480589,42.4609715 683.309016,42.4609715 L684.309016,42.4609715 C685.137443,42.4609715 685.809016,41.7893987 685.809016,40.9609715 C685.809016,40.1325444 685.137443,39.4609715 684.309016,39.4609715 Z M674.309016,39.4609715 L673.309016,39.4609715 C672.480589,39.4609715 671.809016,40.1325444 671.809016,40.9609715 C671.809016,41.7893987 672.480589,42.4609715 673.309016,42.4609715 L674.309016,42.4609715 C675.137443,42.4609715 675.809016,41.7893987 675.809016,40.9609715 C675.809016,40.1325444 675.137443,39.4609715 674.309016,39.4609715 Z M664.309016,39.4609715 L663.309016,39.4609715 C662.480589,39.4609715 661.809016,40.1325444 661.809016,40.9609715 C661.809016,41.7893987 662.480589,42.4609715 663.309016,42.4609715 L664.309016,42.4609715 C665.137443,42.4609715 665.809016,41.7893987 665.809016,40.9609715 C665.809016,40.1325444 665.137443,39.4609715 664.309016,39.4609715 Z M654.309016,39.4609715 L653.309016,39.4609715 C652.480589,39.4609715 651.809016,40.1325444 651.809016,40.9609715 C651.809016,41.7893987 652.480589,42.4609715 653.309016,42.4609715 L654.309016,42.4609715 C655.137443,42.4609715 655.809016,41.7893987 655.809016,40.9609715 C655.809016,40.1325444 655.137443,39.4609715 654.309016,39.4609715 Z M644.309016,39.4609715 L643.309016,39.4609715 C642.480589,39.4609715 641.809016,40.1325444 641.809016,40.9609715 C641.809016,41.7893987 642.480589,42.4609715 643.309016,42.4609715 L644.309016,42.4609715 C645.137443,42.4609715 645.809016,41.7893987 645.809016,40.9609715 C645.809016,40.1325444 645.137443,39.4609715 644.309016,39.4609715 Z M634.309016,39.4609715 L633.309016,39.4609715 C632.480589,39.4609715 631.809016,40.1325444 631.809016,40.9609715 C631.809016,41.7893987 632.480589,42.4609715 633.309016,42.4609715 L634.309016,42.4609715 C635.137443,42.4609715 635.809016,41.7893987 635.809016,40.9609715 C635.809016,40.1325444 635.137443,39.4609715 634.309016,39.4609715 Z M624.309016,39.4609715 L623.309016,39.4609715 C622.480589,39.4609715 621.809016,40.1325444 621.809016,40.9609715 C621.809016,41.7893987 622.480589,42.4609715 623.309016,42.4609715 L624.309016,42.4609715 C625.137443,42.4609715 625.809016,41.7893987 625.809016,40.9609715 C625.809016,40.1325444 625.137443,39.4609715 624.309016,39.4609715 Z M614.309016,39.4609715 L613.309016,39.4609715 C612.480589,39.4609715 611.809016,40.1325444 611.809016,40.9609715 C611.809016,41.7893987 612.480589,42.4609715 613.309016,42.4609715 L614.309016,42.4609715 C615.137443,42.4609715 615.809016,41.7893987 615.809016,40.9609715 C615.809016,40.1325444 615.137443,39.4609715 614.309016,39.4609715 Z M604.309016,39.4609715 L603.309016,39.4609715 C602.480589,39.4609715 601.809016,40.1325444 601.809016,40.9609715 C601.809016,41.7893987 602.480589,42.4609715 603.309016,42.4609715 L604.309016,42.4609715 C605.137443,42.4609715 605.809016,41.7893987 605.809016,40.9609715 C605.809016,40.1325444 605.137443,39.4609715 604.309016,39.4609715 Z M594.309016,39.4609715 L593.309016,39.4609715 C592.480589,39.4609715 591.809016,40.1325444 591.809016,40.9609715 C591.809016,41.7893987 592.480589,42.4609715 593.309016,42.4609715 L594.309016,42.4609715 C595.137443,42.4609715 595.809016,41.7893987 595.809016,40.9609715 C595.809016,40.1325444 595.137443,39.4609715 594.309016,39.4609715 Z M584.309016,39.4609715 L583.309016,39.4609715 C582.480589,39.4609715 581.809016,40.1325444 581.809016,40.9609715 C581.809016,41.7893987 582.480589,42.4609715 583.309016,42.4609715 L584.309016,42.4609715 C585.137443,42.4609715 585.809016,41.7893987 585.809016,40.9609715 C585.809016,40.1325444 585.137443,39.4609715 584.309016,39.4609715 Z M574.309016,39.4609715 L573.309016,39.4609715 C572.480589,39.4609715 571.809016,40.1325444 571.809016,40.9609715 C571.809016,41.7893987 572.480589,42.4609715 573.309016,42.4609715 L574.309016,42.4609715 C575.137443,42.4609715 575.809016,41.7893987 575.809016,40.9609715 C575.809016,40.1325444 575.137443,39.4609715 574.309016,39.4609715 Z M564.309016,39.4609715 L563.309016,39.4609715 C562.480589,39.4609715 561.809016,40.1325444 561.809016,40.9609715 C561.809016,41.7893987 562.480589,42.4609715 563.309016,42.4609715 L564.309016,42.4609715 C565.137443,42.4609715 565.809016,41.7893987 565.809016,40.9609715 C565.809016,40.1325444 565.137443,39.4609715 564.309016,39.4609715 Z M554.309016,39.4609715 L553.309016,39.4609715 C552.480589,39.4609715 551.809016,40.1325444 551.809016,40.9609715 C551.809016,41.7893987 552.480589,42.4609715 553.309016,42.4609715 L554.309016,42.4609715 C555.137443,42.4609715 555.809016,41.7893987 555.809016,40.9609715 C555.809016,40.1325444 555.137443,39.4609715 554.309016,39.4609715 Z M544.309016,39.4609715 L543.309016,39.4609715 C542.480589,39.4609715 541.809016,40.1325444 541.809016,40.9609715 C541.809016,41.7893987 542.480589,42.4609715 543.309016,42.4609715 L544.309016,42.4609715 C545.137443,42.4609715 545.809016,41.7893987 545.809016,40.9609715 C545.809016,40.1325444 545.137443,39.4609715 544.309016,39.4609715 Z M534.309016,39.4609715 L533.309016,39.4609715 C532.480589,39.4609715 531.809016,40.1325444 531.809016,40.9609715 C531.809016,41.7893987 532.480589,42.4609715 533.309016,42.4609715 L534.309016,42.4609715 C535.137443,42.4609715 535.809016,41.7893987 535.809016,40.9609715 C535.809016,40.1325444 535.137443,39.4609715 534.309016,39.4609715 Z M524.309016,39.4609715 L523.309016,39.4609715 C522.480589,39.4609715 521.809016,40.1325444 521.809016,40.9609715 C521.809016,41.7893987 522.480589,42.4609715 523.309016,42.4609715 L524.309016,42.4609715 C525.137443,42.4609715 525.809016,41.7893987 525.809016,40.9609715 C525.809016,40.1325444 525.137443,39.4609715 524.309016,39.4609715 Z M514.309016,39.4609715 L513.309016,39.4609715 C512.480589,39.4609715 511.809016,40.1325444 511.809016,40.9609715 C511.809016,41.7893987 512.480589,42.4609715 513.309016,42.4609715 L514.309016,42.4609715 C515.137443,42.4609715 515.809016,41.7893987 515.809016,40.9609715 C515.809016,40.1325444 515.137443,39.4609715 514.309016,39.4609715 Z M504.309016,39.4609715 L503.309016,39.4609715 C502.480589,39.4609715 501.809016,40.1325444 501.809016,40.9609715 C501.809016,41.7893987 502.480589,42.4609715 503.309016,42.4609715 L504.309016,42.4609715 C505.137443,42.4609715 505.809016,41.7893987 505.809016,40.9609715 C505.809016,40.1325444 505.137443,39.4609715 504.309016,39.4609715 Z M494.309016,39.4609715 L493.309016,39.4609715 C492.480589,39.4609715 491.809016,40.1325444 491.809016,40.9609715 C491.809016,41.7893987 492.480589,42.4609715 493.309016,42.4609715 L494.309016,42.4609715 C495.137443,42.4609715 495.809016,41.7893987 495.809016,40.9609715 C495.809016,40.1325444 495.137443,39.4609715 494.309016,39.4609715 Z M484.309016,39.4609715 L483.309016,39.4609715 C482.480589,39.4609715 481.809016,40.1325444 481.809016,40.9609715 C481.809016,41.7893987 482.480589,42.4609715 483.309016,42.4609715 L484.309016,42.4609715 C485.137443,42.4609715 485.809016,41.7893987 485.809016,40.9609715 C485.809016,40.1325444 485.137443,39.4609715 484.309016,39.4609715 Z M474.309016,39.4609715 L473.309016,39.4609715 C472.480589,39.4609715 471.809016,40.1325444 471.809016,40.9609715 C471.809016,41.7893987 472.480589,42.4609715 473.309016,42.4609715 L474.309016,42.4609715 C475.137443,42.4609715 475.809016,41.7893987 475.809016,40.9609715 C475.809016,40.1325444 475.137443,39.4609715 474.309016,39.4609715 Z M464.309016,39.4609715 L463.309016,39.4609715 C462.480589,39.4609715 461.809016,40.1325444 461.809016,40.9609715 C461.809016,41.7893987 462.480589,42.4609715 463.309016,42.4609715 L464.309016,42.4609715 C465.137443,42.4609715 465.809016,41.7893987 465.809016,40.9609715 C465.809016,40.1325444 465.137443,39.4609715 464.309016,39.4609715 Z M454.309016,39.4609715 L453.309016,39.4609715 C452.480589,39.4609715 451.809016,40.1325444 451.809016,40.9609715 C451.809016,41.7893987 452.480589,42.4609715 453.309016,42.4609715 L454.309016,42.4609715 C455.137443,42.4609715 455.809016,41.7893987 455.809016,40.9609715 C455.809016,40.1325444 455.137443,39.4609715 454.309016,39.4609715 Z M444.309016,39.4609715 L443.309016,39.4609715 C442.480589,39.4609715 441.809016,40.1325444 441.809016,40.9609715 C441.809016,41.7893987 442.480589,42.4609715 443.309016,42.4609715 L444.309016,42.4609715 C445.137443,42.4609715 445.809016,41.7893987 445.809016,40.9609715 C445.809016,40.1325444 445.137443,39.4609715 444.309016,39.4609715 Z M434.309016,39.4609715 L433.309016,39.4609715 C432.480589,39.4609715 431.809016,40.1325444 431.809016,40.9609715 C431.809016,41.7893987 432.480589,42.4609715 433.309016,42.4609715 L434.309016,42.4609715 C435.137443,42.4609715 435.809016,41.7893987 435.809016,40.9609715 C435.809016,40.1325444 435.137443,39.4609715 434.309016,39.4609715 Z M424.309016,39.4609715 L423.309016,39.4609715 C422.480589,39.4609715 421.809016,40.1325444 421.809016,40.9609715 C421.809016,41.7893987 422.480589,42.4609715 423.309016,42.4609715 L424.309016,42.4609715 C425.137443,42.4609715 425.809016,41.7893987 425.809016,40.9609715 C425.809016,40.1325444 425.137443,39.4609715 424.309016,39.4609715 Z M414.309016,39.4609715 L413.309016,39.4609715 C412.480589,39.4609715 411.809016,40.1325444 411.809016,40.9609715 C411.809016,41.7893987 412.480589,42.4609715 413.309016,42.4609715 L414.309016,42.4609715 C415.137443,42.4609715 415.809016,41.7893987 415.809016,40.9609715 C415.809016,40.1325444 415.137443,39.4609715 414.309016,39.4609715 Z M404.309016,39.4609715 L403.309016,39.4609715 C402.480589,39.4609715 401.809016,40.1325444 401.809016,40.9609715 C401.809016,41.7893987 402.480589,42.4609715 403.309016,42.4609715 L404.309016,42.4609715 C405.137443,42.4609715 405.809016,41.7893987 405.809016,40.9609715 C405.809016,40.1325444 405.137443,39.4609715 404.309016,39.4609715 Z M394.309016,39.4609715 L393.309016,39.4609715 C392.480589,39.4609715 391.809016,40.1325444 391.809016,40.9609715 C391.809016,41.7893987 392.480589,42.4609715 393.309016,42.4609715 L394.309016,42.4609715 C395.137443,42.4609715 395.809016,41.7893987 395.809016,40.9609715 C395.809016,40.1325444 395.137443,39.4609715 394.309016,39.4609715 Z M384.309016,39.4609715 L383.309016,39.4609715 C382.480589,39.4609715 381.809016,40.1325444 381.809016,40.9609715 C381.809016,41.7893987 382.480589,42.4609715 383.309016,42.4609715 L384.309016,42.4609715 C385.137443,42.4609715 385.809016,41.7893987 385.809016,40.9609715 C385.809016,40.1325444 385.137443,39.4609715 384.309016,39.4609715 Z M374.309016,39.4609715 L373.309016,39.4609715 C372.480589,39.4609715 371.809016,40.1325444 371.809016,40.9609715 C371.809016,41.7893987 372.480589,42.4609715 373.309016,42.4609715 L374.309016,42.4609715 C375.137443,42.4609715 375.809016,41.7893987 375.809016,40.9609715 C375.809016,40.1325444 375.137443,39.4609715 374.309016,39.4609715 Z M364.309016,39.4609715 L363.309016,39.4609715 C362.480589,39.4609715 361.809016,40.1325444 361.809016,40.9609715 C361.809016,41.7893987 362.480589,42.4609715 363.309016,42.4609715 L364.309016,42.4609715 C365.137443,42.4609715 365.809016,41.7893987 365.809016,40.9609715 C365.809016,40.1325444 365.137443,39.4609715 364.309016,39.4609715 Z M354.309016,39.4609715 L353.309016,39.4609715 C352.480589,39.4609715 351.809016,40.1325444 351.809016,40.9609715 C351.809016,41.7893987 352.480589,42.4609715 353.309016,42.4609715 L354.309016,42.4609715 C355.137443,42.4609715 355.809016,41.7893987 355.809016,40.9609715 C355.809016,40.1325444 355.137443,39.4609715 354.309016,39.4609715 Z M344.309016,39.4609715 L343.309016,39.4609715 C342.480589,39.4609715 341.809016,40.1325444 341.809016,40.9609715 C341.809016,41.7893987 342.480589,42.4609715 343.309016,42.4609715 L344.309016,42.4609715 C345.137443,42.4609715 345.809016,41.7893987 345.809016,40.9609715 C345.809016,40.1325444 345.137443,39.4609715 344.309016,39.4609715 Z M334.309016,39.4609715 L333.309016,39.4609715 C332.480589,39.4609715 331.809016,40.1325444 331.809016,40.9609715 C331.809016,41.7893987 332.480589,42.4609715 333.309016,42.4609715 L334.309016,42.4609715 C335.137443,42.4609715 335.809016,41.7893987 335.809016,40.9609715 C335.809016,40.1325444 335.137443,39.4609715 334.309016,39.4609715 Z M324.309016,39.4609715 L323.309016,39.4609715 C322.480589,39.4609715 321.809016,40.1325444 321.809016,40.9609715 C321.809016,41.7893987 322.480589,42.4609715 323.309016,42.4609715 L324.309016,42.4609715 C325.137443,42.4609715 325.809016,41.7893987 325.809016,40.9609715 C325.809016,40.1325444 325.137443,39.4609715 324.309016,39.4609715 Z M314.309016,39.4609715 L313.309016,39.4609715 C312.480589,39.4609715 311.809016,40.1325444 311.809016,40.9609715 C311.809016,41.7893987 312.480589,42.4609715 313.309016,42.4609715 L314.309016,42.4609715 C315.137443,42.4609715 315.809016,41.7893987 315.809016,40.9609715 C315.809016,40.1325444 315.137443,39.4609715 314.309016,39.4609715 Z M304.309016,39.4609715 L303.309016,39.4609715 C302.480589,39.4609715 301.809016,40.1325444 301.809016,40.9609715 C301.809016,41.7893987 302.480589,42.4609715 303.309016,42.4609715 L304.309016,42.4609715 C305.137443,42.4609715 305.809016,41.7893987 305.809016,40.9609715 C305.809016,40.1325444 305.137443,39.4609715 304.309016,39.4609715 Z M294.309016,39.4609715 L293.309016,39.4609715 C292.480589,39.4609715 291.809016,40.1325444 291.809016,40.9609715 C291.809016,41.7893987 292.480589,42.4609715 293.309016,42.4609715 L294.309016,42.4609715 C295.137443,42.4609715 295.809016,41.7893987 295.809016,40.9609715 C295.809016,40.1325444 295.137443,39.4609715 294.309016,39.4609715 Z M284.309016,39.4609715 L283.309016,39.4609715 C282.480589,39.4609715 281.809016,40.1325444 281.809016,40.9609715 C281.809016,41.7893987 282.480589,42.4609715 283.309016,42.4609715 L284.309016,42.4609715 C285.137443,42.4609715 285.809016,41.7893987 285.809016,40.9609715 C285.809016,40.1325444 285.137443,39.4609715 284.309016,39.4609715 Z M274.309016,39.4609715 L273.309016,39.4609715 C272.480589,39.4609715 271.809016,40.1325444 271.809016,40.9609715 C271.809016,41.7893987 272.480589,42.4609715 273.309016,42.4609715 L274.309016,42.4609715 C275.137443,42.4609715 275.809016,41.7893987 275.809016,40.9609715 C275.809016,40.1325444 275.137443,39.4609715 274.309016,39.4609715 Z M264.309016,39.4609715 L263.309016,39.4609715 C262.480589,39.4609715 261.809016,40.1325444 261.809016,40.9609715 C261.809016,41.7893987 262.480589,42.4609715 263.309016,42.4609715 L264.309016,42.4609715 C265.137443,42.4609715 265.809016,41.7893987 265.809016,40.9609715 C265.809016,40.1325444 265.137443,39.4609715 264.309016,39.4609715 Z M254.309016,39.4609715 L253.309016,39.4609715 C252.480589,39.4609715 251.809016,40.1325444 251.809016,40.9609715 C251.809016,41.7893987 252.480589,42.4609715 253.309016,42.4609715 L254.309016,42.4609715 C255.137443,42.4609715 255.809016,41.7893987 255.809016,40.9609715 C255.809016,40.1325444 255.137443,39.4609715 254.309016,39.4609715 Z M244.309016,39.4609715 L243.309016,39.4609715 C242.480589,39.4609715 241.809016,40.1325444 241.809016,40.9609715 C241.809016,41.7893987 242.480589,42.4609715 243.309016,42.4609715 L244.309016,42.4609715 C245.137443,42.4609715 245.809016,41.7893987 245.809016,40.9609715 C245.809016,40.1325444 245.137443,39.4609715 244.309016,39.4609715 Z M234.309016,39.4609715 L233.309016,39.4609715 C232.480589,39.4609715 231.809016,40.1325444 231.809016,40.9609715 C231.809016,41.7893987 232.480589,42.4609715 233.309016,42.4609715 L234.309016,42.4609715 C235.137443,42.4609715 235.809016,41.7893987 235.809016,40.9609715 C235.809016,40.1325444 235.137443,39.4609715 234.309016,39.4609715 Z M224.309016,39.4609715 L223.309016,39.4609715 C222.480589,39.4609715 221.809016,40.1325444 221.809016,40.9609715 C221.809016,41.7893987 222.480589,42.4609715 223.309016,42.4609715 L224.309016,42.4609715 C225.137443,42.4609715 225.809016,41.7893987 225.809016,40.9609715 C225.809016,40.1325444 225.137443,39.4609715 224.309016,39.4609715 Z M214.309016,39.4609715 L213.309016,39.4609715 C212.480589,39.4609715 211.809016,40.1325444 211.809016,40.9609715 C211.809016,41.7893987 212.480589,42.4609715 213.309016,42.4609715 L214.309016,42.4609715 C215.137443,42.4609715 215.809016,41.7893987 215.809016,40.9609715 C215.809016,40.1325444 215.137443,39.4609715 214.309016,39.4609715 Z M204.309016,39.4609715 L203.309016,39.4609715 C202.480589,39.4609715 201.809016,40.1325444 201.809016,40.9609715 C201.809016,41.7893987 202.480589,42.4609715 203.309016,42.4609715 L204.309016,42.4609715 C205.137443,42.4609715 205.809016,41.7893987 205.809016,40.9609715 C205.809016,40.1325444 205.137443,39.4609715 204.309016,39.4609715 Z M194.309016,39.4609715 L193.309016,39.4609715 C192.480589,39.4609715 191.809016,40.1325444 191.809016,40.9609715 C191.809016,41.7893987 192.480589,42.4609715 193.309016,42.4609715 L194.309016,42.4609715 C195.137443,42.4609715 195.809016,41.7893987 195.809016,40.9609715 C195.809016,40.1325444 195.137443,39.4609715 194.309016,39.4609715 Z M184.309016,39.4609715 L183.309016,39.4609715 C182.480589,39.4609715 181.809016,40.1325444 181.809016,40.9609715 C181.809016,41.7893987 182.480589,42.4609715 183.309016,42.4609715 L184.309016,42.4609715 C185.137443,42.4609715 185.809016,41.7893987 185.809016,40.9609715 C185.809016,40.1325444 185.137443,39.4609715 184.309016,39.4609715 Z M174.309016,39.4609715 L173.309016,39.4609715 C172.480589,39.4609715 171.809016,40.1325444 171.809016,40.9609715 C171.809016,41.7893987 172.480589,42.4609715 173.309016,42.4609715 L174.309016,42.4609715 C175.137443,42.4609715 175.809016,41.7893987 175.809016,40.9609715 C175.809016,40.1325444 175.137443,39.4609715 174.309016,39.4609715 Z M164.309016,39.4609715 L163.309016,39.4609715 C162.480589,39.4609715 161.809016,40.1325444 161.809016,40.9609715 C161.809016,41.7893987 162.480589,42.4609715 163.309016,42.4609715 L164.309016,42.4609715 C165.137443,42.4609715 165.809016,41.7893987 165.809016,40.9609715 C165.809016,40.1325444 165.137443,39.4609715 164.309016,39.4609715 Z M154.309016,39.4609715 L153.309016,39.4609715 C152.480589,39.4609715 151.809016,40.1325444 151.809016,40.9609715 C151.809016,41.7893987 152.480589,42.4609715 153.309016,42.4609715 L154.309016,42.4609715 C155.137443,42.4609715 155.809016,41.7893987 155.809016,40.9609715 C155.809016,40.1325444 155.137443,39.4609715 154.309016,39.4609715 Z M144.309016,39.4609715 L143.309016,39.4609715 C142.480589,39.4609715 141.809016,40.1325444 141.809016,40.9609715 C141.809016,41.7893987 142.480589,42.4609715 143.309016,42.4609715 L144.309016,42.4609715 C145.137443,42.4609715 145.809016,41.7893987 145.809016,40.9609715 C145.809016,40.1325444 145.137443,39.4609715 144.309016,39.4609715 Z M134.309016,39.4609715 L133.309016,39.4609715 C132.480589,39.4609715 131.809016,40.1325444 131.809016,40.9609715 C131.809016,41.7893987 132.480589,42.4609715 133.309016,42.4609715 L134.309016,42.4609715 C135.137443,42.4609715 135.809016,41.7893987 135.809016,40.9609715 C135.809016,40.1325444 135.137443,39.4609715 134.309016,39.4609715 Z M124.309016,39.4609715 L123.309016,39.4609715 C122.480589,39.4609715 121.809016,40.1325444 121.809016,40.9609715 C121.809016,41.7893987 122.480589,42.4609715 123.309016,42.4609715 L124.309016,42.4609715 C125.137443,42.4609715 125.809016,41.7893987 125.809016,40.9609715 C125.809016,40.1325444 125.137443,39.4609715 124.309016,39.4609715 Z M114.309016,39.4609715 L113.309016,39.4609715 C112.480589,39.4609715 111.809016,40.1325444 111.809016,40.9609715 C111.809016,41.7893987 112.480589,42.4609715 113.309016,42.4609715 L114.309016,42.4609715 C115.137443,42.4609715 115.809016,41.7893987 115.809016,40.9609715 C115.809016,40.1325444 115.137443,39.4609715 114.309016,39.4609715 Z M104.309016,39.4609715 L103.309016,39.4609715 C102.480589,39.4609715 101.809016,40.1325444 101.809016,40.9609715 C101.809016,41.7893987 102.480589,42.4609715 103.309016,42.4609715 L104.309016,42.4609715 C105.137443,42.4609715 105.809016,41.7893987 105.809016,40.9609715 C105.809016,40.1325444 105.137443,39.4609715 104.309016,39.4609715 Z M94.3090162,39.4609715 L93.3090162,39.4609715 C92.480589,39.4609715 91.8090162,40.1325444 91.8090162,40.9609715 C91.8090162,41.7893987 92.480589,42.4609715 93.3090162,42.4609715 L94.3090162,42.4609715 C95.1374433,42.4609715 95.8090162,41.7893987 95.8090162,40.9609715 C95.8090162,40.1325444 95.1374433,39.4609715 94.3090162,39.4609715 Z M84.3090162,39.4609715 L83.3090162,39.4609715 C82.480589,39.4609715 81.8090162,40.1325444 81.8090162,40.9609715 C81.8090162,41.7893987 82.480589,42.4609715 83.3090162,42.4609715 L84.3090162,42.4609715 C85.1374433,42.4609715 85.8090162,41.7893987 85.8090162,40.9609715 C85.8090162,40.1325444 85.1374433,39.4609715 84.3090162,39.4609715 Z M74.3090162,39.4609715 L73.3090162,39.4609715 C72.480589,39.4609715 71.8090162,40.1325444 71.8090162,40.9609715 C71.8090162,41.7893987 72.480589,42.4609715 73.3090162,42.4609715 L74.3090162,42.4609715 C75.1374433,42.4609715 75.8090162,41.7893987 75.8090162,40.9609715 C75.8090162,40.1325444 75.1374433,39.4609715 74.3090162,39.4609715 Z M64.3090162,39.4609715 L63.3090162,39.4609715 C62.480589,39.4609715 61.8090162,40.1325444 61.8090162,40.9609715 C61.8090162,41.7893987 62.480589,42.4609715 63.3090162,42.4609715 L64.3090162,42.4609715 C65.1374433,42.4609715 65.8090162,41.7893987 65.8090162,40.9609715 C65.8090162,40.1325444 65.1374433,39.4609715 64.3090162,39.4609715 Z M54.3090162,39.4609715 L53.3090162,39.4609715 C52.480589,39.4609715 51.8090162,40.1325444 51.8090162,40.9609715 C51.8090162,41.7893987 52.480589,42.4609715 53.3090162,42.4609715 L54.3090162,42.4609715 C55.1374433,42.4609715 55.8090162,41.7893987 55.8090162,40.9609715 C55.8090162,40.1325444 55.1374433,39.4609715 54.3090162,39.4609715 Z M44.3090162,39.4609715 L43.3090162,39.4609715 C42.480589,39.4609715 41.8090162,40.1325444 41.8090162,40.9609715 C41.8090162,41.7893987 42.480589,42.4609715 43.3090162,42.4609715 L44.3090162,42.4609715 C45.1374433,42.4609715 45.8090162,41.7893987 45.8090162,40.9609715 C45.8090162,40.1325444 45.1374433,39.4609715 44.3090162,39.4609715 Z M34.3090162,39.4609715 L33.3090162,39.4609715 C32.480589,39.4609715 31.8090162,40.1325444 31.8090162,40.9609715 C31.8090162,41.7893987 32.480589,42.4609715 33.3090162,42.4609715 L34.3090162,42.4609715 C35.1374433,42.4609715 35.8090162,41.7893987 35.8090162,40.9609715 C35.8090162,40.1325444 35.1374433,39.4609715 34.3090162,39.4609715 Z M24.3090162,39.4609715 L23.3090162,39.4609715 C22.480589,39.4609715 21.8090162,40.1325444 21.8090162,40.9609715 C21.8090162,41.7893987 22.480589,42.4609715 23.3090162,42.4609715 L24.3090162,42.4609715 C25.1374433,42.4609715 25.8090162,41.7893987 25.8090162,40.9609715 C25.8090162,40.1325444 25.1374433,39.4609715 24.3090162,39.4609715 Z M14.3090162,39.4609715 L13.3090162,39.4609715 C12.480589,39.4609715 11.8090162,40.1325444 11.8090162,40.9609715 C11.8090162,41.7893987 12.480589,42.4609715 13.3090162,42.4609715 L14.3090162,42.4609715 C15.1374433,42.4609715 15.8090162,41.7893987 15.8090162,40.9609715 C15.8090162,40.1325444 15.1374433,39.4609715 14.3090162,39.4609715 Z M6.38778055,40.3822071 L6.38778055,39.3822071 C6.38778055,38.55378 5.71620767,37.8822071 4.88778055,37.8822071 C4.05935342,37.8822071 3.38778055,38.55378 3.38778055,39.3822071 L3.38778055,40.3822071 C3.38778055,41.2106343 4.05935342,41.8822071 4.88778055,41.8822071 C5.71620767,41.8822071 6.38778055,41.2106343 6.38778055,40.3822071 Z M6.38778055,30.3822071 L6.38778055,29.3822071 C6.38778055,28.55378 5.71620767,27.8822071 4.88778055,27.8822071 C4.05935342,27.8822071 3.38778055,28.55378 3.38778055,29.3822071 L3.38778055,30.3822071 C3.38778055,31.2106343 4.05935342,31.8822071 4.88778055,31.8822071 C5.71620767,31.8822071 6.38778055,31.2106343 6.38778055,30.3822071 Z M6.38778055,20.3822071 L6.38778055,19.3822071 C6.38778055,18.55378 5.71620767,17.8822071 4.88778055,17.8822071 C4.05935342,17.8822071 3.38778055,18.55378 3.38778055,19.3822071 L3.38778055,20.3822071 C3.38778055,21.2106343 4.05935342,21.8822071 4.88778055,21.8822071 C5.71620767,21.8822071 6.38778055,21.2106343 6.38778055,20.3822071 Z" id="Path-19"></path>
            <path d="M724,70 C720.686292,70 718,72.6862915 718,76 C718,79.3137085 720.686292,82 724,82 C727.313708,82 730,79.3137085 730,76 C730,72.6862915 727.313708,70 724,70 Z M724,72 C726.209139,72 728,73.790861 728,76 C728,78.209139 726.209139,80 724,80 C721.790861,80 720,78.209139 720,76 C720,73.790861 721.790861,72 724,72 Z" id="Oval"></path>
            <path d="M5,-1 C1.6862915,-1 -1,1.6862915 -1,5 C-1,8.3137085 1.6862915,11 5,11 C8.3137085,11 11,8.3137085 11,5 C11,1.6862915 8.3137085,-1 5,-1 Z M5,1 C7.209139,1 9,2.790861 9,5 C9,7.209139 7.209139,9 5,9 C2.790861,9 1,7.209139 1,5 C1,2.790861 2.790861,1 5,1 Z" id="Oval"></path>
        </g>
    </g>
</svg>