<?xml version="1.0" encoding="UTF-8"?>
<svg width="95px" height="23px" viewBox="0 0 95 23" version="1.1" xmlns="http://www.w3.org/2000/svg" xmlns:xlink="http://www.w3.org/1999/xlink">
    <title>Group 63</title>
    <g id="Marketing-2.0" stroke="none" stroke-width="1" fill="none" fill-rule="evenodd">
        <g id="Group-63" fill="#40CC79" fill-rule="nonzero">
            <path d="M4.718,22.168 C5.31533333,22.168 5.85666667,22.0956667 6.342,21.951 C6.82733333,21.8063333 7.24266667,21.5963333 7.588,21.321 C7.93333333,21.0456667 8.20166667,20.712 8.393,20.32 C8.58433333,19.928 8.68,19.48 8.68,18.976 L8.68,18.976 L8.68,18.948 C8.68,18.4906667 8.596,18.0963333 8.428,17.765 C8.26,17.4336667 8.01733333,17.1513333 7.7,16.918 C7.38266667,16.6846667 6.99766667,16.4863333 6.545,16.323 C6.09233333,16.1596667 5.586,16.0173333 5.026,15.896 C4.69,15.8213333 4.41233333,15.749 4.193,15.679 C3.97366667,15.609 3.801,15.539 3.675,15.469 C3.549,15.399 3.46033333,15.322 3.409,15.238 C3.35766667,15.154 3.332,15.056 3.332,14.944 L3.332,14.944 L3.332,14.916 C3.332,14.7386667 3.41366667,14.5893333 3.577,14.468 C3.74033333,14.3466667 3.98533333,14.286 4.312,14.286 C4.75066667,14.286 5.20566667,14.3676667 5.677,14.531 C6.14833333,14.6943333 6.608,14.9346667 7.056,15.252 L7.056,15.252 L8.414,13.334 C7.882,12.9046667 7.287,12.5803333 6.629,12.361 C5.971,12.1416667 5.222,12.032 4.382,12.032 C3.794,12.032 3.26666667,12.109 2.8,12.263 C2.33333333,12.417 1.93433333,12.634 1.603,12.914 C1.27166667,13.194 1.01966667,13.5253333 0.847,13.908 C0.674333333,14.2906667 0.588,14.7106667 0.588,15.168 L0.588,15.168 L0.588,15.196 C0.588,15.7 0.683666667,16.1223333 0.875,16.463 C1.06633333,16.8036667 1.32766667,17.0883333 1.659,17.317 C1.99033333,17.5456667 2.38,17.7323333 2.828,17.877 C3.276,18.0216667 3.76133333,18.1546667 4.284,18.276 C4.62,18.3506667 4.893,18.423 5.103,18.493 C5.313,18.563 5.481,18.6353333 5.607,18.71 C5.733,18.7846667 5.81933333,18.8616667 5.866,18.941 C5.91266667,19.0203333 5.936,19.1113333 5.936,19.214 L5.936,19.214 L5.936,19.242 C5.936,19.4566667 5.84033333,19.6223333 5.649,19.739 C5.45766667,19.8556667 5.18,19.914 4.816,19.914 C3.67733333,19.914 2.618,19.522 1.638,18.738 L1.638,18.738 L0.126,20.544 C0.732666667,21.0853333 1.43033333,21.4913333 2.219,21.762 C3.00766667,22.0326667 3.84066667,22.168 4.718,22.168 Z M12.012,22.168 C12.516,22.168 12.9476667,22.0816667 13.307,21.909 C13.6663333,21.7363333 13.9766667,21.5053333 14.238,21.216 L14.238,21.216 L14.238,22 L16.87,22 L16.87,17.646 C16.87,17.114 16.807,16.6496667 16.681,16.253 C16.555,15.8563333 16.3473333,15.518 16.058,15.238 C15.7593333,14.9393333 15.3743333,14.7106667 14.903,14.552 C14.4316667,14.3933333 13.8553333,14.314 13.174,14.314 C12.5206667,14.314 11.9536667,14.3676667 11.473,14.475 C10.9923333,14.5823333 10.5373333,14.7246667 10.108,14.902 L10.108,14.902 L10.654,16.778 C10.99,16.6473333 11.3213333,16.5446667 11.648,16.47 C11.9746667,16.3953333 12.3386667,16.358 12.74,16.358 C13.2533333,16.358 13.6336667,16.4653333 13.881,16.68 C14.1283333,16.8946667 14.252,17.198 14.252,17.59 L14.252,17.59 L14.252,17.716 C14.0373333,17.6413333 13.769,17.5736667 13.447,17.513 C13.125,17.4523333 12.7866667,17.422 12.432,17.422 C11.984,17.422 11.578,17.4733333 11.214,17.576 C10.85,17.6786667 10.5396667,17.828 10.283,18.024 C10.0263333,18.22 9.82566667,18.4673333 9.681,18.766 C9.53633333,19.0646667 9.464,19.41 9.464,19.802 L9.464,19.802 L9.464,19.83 C9.464,20.2033333 9.52933333,20.537 9.66,20.831 C9.79066667,21.125 9.97033333,21.37 10.199,21.566 C10.4276667,21.762 10.696,21.9113333 11.004,22.014 C11.312,22.1166667 11.648,22.168 12.012,22.168 Z M12.964,20.502 C12.6933333,20.502 12.4693333,20.4296667 12.292,20.285 C12.1146667,20.1403333 12.026,19.9373333 12.026,19.676 L12.026,19.676 L12.026,19.648 C12.026,19.368 12.131,19.1416667 12.341,18.969 C12.551,18.7963333 12.852,18.71 13.244,18.71 C13.44,18.71 13.629,18.7286667 13.811,18.766 C13.993,18.8033333 14.1493333,18.85 14.28,18.906 L14.28,18.906 L14.28,19.256 C14.28,19.6386667 14.1586667,19.942 13.916,20.166 C13.6733333,20.39 13.356,20.502 12.964,20.502 Z M23.1,22.056 L26.124,14.426 L23.366,14.426 L21.91,18.85 L20.454,14.426 L17.654,14.426 L20.678,22.056 L23.1,22.056 Z M30.73,22.182 C31.486,22.182 32.1323333,22.042 32.669,21.762 C33.2056667,21.482 33.656,21.1086667 34.02,20.642 L34.02,20.642 L32.55,19.424 C32.2793333,19.6946667 32.011,19.8906667 31.745,20.012 C31.479,20.1333333 31.1873333,20.194 30.87,20.194 C30.45,20.194 30.0976667,20.0913333 29.813,19.886 C29.5283333,19.6806667 29.3346667,19.368 29.232,18.948 L29.232,18.948 L34.3,18.948 C34.3093333,18.8546667 34.314,18.7613333 34.314,18.668 L34.314,18.668 L34.314,18.402 C34.314,17.842 34.237,17.3123333 34.083,16.813 C33.929,16.3136667 33.6956667,15.875 33.383,15.497 C33.0703333,15.119 32.6736667,14.818 32.193,14.594 C31.7123333,14.37 31.1453333,14.258 30.492,14.258 C29.932,14.258 29.4186667,14.3606667 28.952,14.566 C28.4853333,14.7713333 28.0816667,15.0513333 27.741,15.406 C27.4003333,15.7606667 27.1366667,16.1806667 26.95,16.666 C26.7633333,17.1513333 26.67,17.6693333 26.67,18.22 L26.67,18.22 L26.67,18.248 C26.67,18.836 26.7703333,19.3726667 26.971,19.858 C27.1716667,20.3433333 27.4516667,20.7563333 27.811,21.097 C28.1703333,21.4376667 28.5973333,21.7036667 29.092,21.895 C29.5866667,22.0863333 30.1326667,22.182 30.73,22.182 Z M31.822,17.59 L29.19,17.59 C29.2646667,17.17 29.414,16.8363333 29.638,16.589 C29.862,16.3416667 30.1513333,16.218 30.506,16.218 C30.87,16.218 31.1686667,16.3416667 31.402,16.589 C31.6353333,16.8363333 31.7753333,17.17 31.822,17.59 L31.822,17.59 Z M46.83,22 L46.83,19.788 L42.784,19.788 L44.464,18.612 C44.828,18.3506667 45.15,18.0986667 45.43,17.856 C45.71,17.6133333 45.948,17.359 46.144,17.093 C46.34,16.827 46.487,16.54 46.585,16.232 C46.683,15.924 46.732,15.574 46.732,15.182 L46.732,15.182 L46.732,15.154 C46.732,14.6873333 46.6433333,14.2626667 46.466,13.88 C46.2886667,13.4973333 46.0413333,13.1706667 45.724,12.9 C45.4066667,12.6293333 45.0263333,12.417 44.583,12.263 C44.1396667,12.109 43.652,12.032 43.12,12.032 C42.644,12.032 42.217,12.0786667 41.839,12.172 C41.461,12.2653333 41.1156667,12.4006667 40.803,12.578 C40.4903333,12.7553333 40.1986667,12.9746667 39.928,13.236 C39.6573333,13.4973333 39.3913333,13.796 39.13,14.132 L39.13,14.132 L40.964,15.658 C41.3466667,15.2193333 41.685,14.8996667 41.979,14.699 C42.273,14.4983333 42.5833333,14.398 42.91,14.398 C43.2366667,14.398 43.5003333,14.4866667 43.701,14.664 C43.9016667,14.8413333 44.002,15.084 44.002,15.392 C44.002,15.6906667 43.9063333,15.9706667 43.715,16.232 C43.5236667,16.4933333 43.1993333,16.8013333 42.742,17.156 L42.742,17.156 L39.074,19.956 L39.074,22 L46.83,22 Z M51.59,22.196 C52.1873333,22.196 52.7333333,22.1166667 53.228,21.958 C53.7226667,21.7993333 54.1496667,21.5706667 54.509,21.272 C54.8683333,20.9733333 55.146,20.607 55.342,20.173 C55.538,19.739 55.636,19.2513333 55.636,18.71 L55.636,18.71 L55.636,18.682 C55.636,18.15 55.5426667,17.688 55.356,17.296 C55.1693333,16.904 54.922,16.582 54.614,16.33 C54.306,16.078 53.949,15.889 53.543,15.763 C53.137,15.637 52.7146667,15.574 52.276,15.574 C51.9493333,15.574 51.6623333,15.6066667 51.415,15.672 C51.1676667,15.7373333 50.932,15.8213333 50.708,15.924 L50.708,15.924 L50.792,14.44 L55.202,14.44 L55.202,12.2 L48.65,12.2 L48.37,17.17 L49.98,18.066 C50.2133333,17.926 50.4583333,17.8093333 50.715,17.716 C50.9716667,17.6226667 51.2493333,17.576 51.548,17.576 C51.9773333,17.576 52.325,17.6763333 52.591,17.877 C52.857,18.0776667 52.99,18.3553333 52.99,18.71 L52.99,18.71 L52.99,18.738 C52.99,19.0926667 52.8616667,19.3726667 52.605,19.578 C52.3483333,19.7833333 51.996,19.886 51.548,19.886 C51.128,19.886 50.7266667,19.7926667 50.344,19.606 C49.9613333,19.4193333 49.5693333,19.158 49.168,18.822 L49.168,18.822 L47.614,20.642 C48.1273333,21.118 48.7013333,21.496 49.336,21.776 C49.9706667,22.056 50.722,22.196 51.59,22.196 Z M59.178,17.338 C59.5606667,17.338 59.906,17.268 60.214,17.128 C60.522,16.988 60.788,16.799 61.012,16.561 C61.236,16.323 61.4086667,16.0453333 61.53,15.728 C61.6513333,15.4106667 61.712,15.07 61.712,14.706 L61.712,14.706 L61.712,14.678 C61.712,14.3233333 61.6513333,13.9873333 61.53,13.67 C61.4086667,13.3526667 61.2383333,13.075 61.019,12.837 C60.7996667,12.599 60.536,12.41 60.228,12.27 C59.92,12.13 59.5746667,12.06 59.192,12.06 C58.8093333,12.06 58.4616667,12.13 58.149,12.27 C57.8363333,12.41 57.5703333,12.599 57.351,12.837 C57.1316667,13.075 56.9613333,13.3526667 56.84,13.67 C56.7186667,13.9873333 56.658,14.328 56.658,14.692 L56.658,14.692 L56.658,14.72 C56.658,15.084 56.7186667,15.4246667 56.84,15.742 C56.9613333,16.0593333 57.1316667,16.337 57.351,16.575 C57.5703333,16.813 57.8363333,16.9996667 58.149,17.135 C58.4616667,17.2703333 58.8046667,17.338 59.178,17.338 Z M59.626,22 L67.186,12.2 L65.296,12.2 L57.736,22 L59.626,22 Z M59.192,15.798 C58.9586667,15.798 58.7626667,15.6953333 58.604,15.49 C58.4453333,15.2846667 58.366,15.0233333 58.366,14.706 L58.366,14.706 L58.366,14.678 C58.366,14.37 58.4406667,14.1133333 58.59,13.908 C58.7393333,13.7026667 58.9353333,13.6 59.178,13.6 C59.4206667,13.6 59.619,13.705 59.773,13.915 C59.927,14.125 60.004,14.384 60.004,14.692 L60.004,14.692 L60.004,14.72 C60.004,15.028 59.9293333,15.2846667 59.78,15.49 C59.6306667,15.6953333 59.4346667,15.798 59.192,15.798 Z M65.73,22.14 C66.1126667,22.14 66.458,22.07 66.766,21.93 C67.074,21.79 67.34,21.601 67.564,21.363 C67.788,21.125 67.9606667,20.845 68.082,20.523 C68.2033333,20.201 68.264,19.8626667 68.264,19.508 L68.264,19.508 L68.264,19.48 C68.264,19.116 68.2033333,18.7753333 68.082,18.458 C67.9606667,18.1406667 67.7903333,17.863 67.571,17.625 C67.3516667,17.387 67.088,17.2003333 66.78,17.065 C66.472,16.9296667 66.1266667,16.862 65.744,16.862 C65.3613333,16.862 65.0136667,16.932 64.701,17.072 C64.3883333,17.212 64.1223333,17.401 63.903,17.639 C63.6836667,17.877 63.5133333,18.1546667 63.392,18.472 C63.2706667,18.7893333 63.21,19.13 63.21,19.494 L63.21,19.494 L63.21,19.522 C63.21,19.8766667 63.2706667,20.2126667 63.392,20.53 C63.5133333,20.8473333 63.6836667,21.125 63.903,21.363 C64.1223333,21.601 64.3883333,21.79 64.701,21.93 C65.0136667,22.07 65.3566667,22.14 65.73,22.14 Z M65.744,20.6 C65.5106667,20.6 65.3146667,20.495 65.156,20.285 C64.9973333,20.075 64.918,19.816 64.918,19.508 L64.918,19.508 L64.918,19.48 C64.918,19.1626667 64.9903333,18.9036667 65.135,18.703 C65.2796667,18.5023333 65.478,18.402 65.73,18.402 C65.9726667,18.402 66.171,18.5046667 66.325,18.71 C66.479,18.9153333 66.556,19.1766667 66.556,19.494 L66.556,19.494 L66.556,19.522 C66.556,19.83 66.4813333,20.0866667 66.332,20.292 C66.1826667,20.4973333 65.9866667,20.6 65.744,20.6 Z" id="Save25%"></path>
            <path d="M91.4972133,21.3157617 L91.5,21 C91.5,11.3350169 83.6649831,3.5 74,3.5 L74,0.5 C85.3218374,0.5 94.5,9.67816263 94.5,21 L94.4967454,21.3687465 L91.4972133,21.3157617 Z" id="Oval" transform="translate(84.250000, 10.934373) scale(1, -1) translate(-84.250000, -10.934373) "></path>
        </g>
    </g>
</svg>