<?xml version="1.0" encoding="UTF-8"?>
<svg width="150px" height="60px" viewBox="0 0 150 60" version="1.1" xmlns="http://www.w3.org/2000/svg" xmlns:xlink="http://www.w3.org/1999/xlink">
    <!-- Generator: Sketch 51.3 (57544) - http://www.bohemiancoding.com/sketch -->
    <title>Group 32</title>
    <desc>Created with Sketch.</desc>
    <defs></defs>
    <g id="Home" stroke="none" stroke-width="1" fill="none" fill-rule="evenodd">
        <g id="Group-32" fill="#DA39FF">
            <g id="Group-21" transform="translate(61.000000, 0.000000)" fill-rule="nonzero">
                <path d="M77.4741748,12.5660897 C76.9493308,12.0925066 76.9077756,11.2831215 77.3813587,10.7582774 C77.8549419,10.2334334 78.664327,10.1918783 79.189171,10.6654614 C81.3081375,12.577471 86.0904022,16.5446566 86.0151841,16.4784594 C87.8461553,18.0898423 88.5051048,19.1577766 88.106528,20.6598017 C87.8185357,21.7450924 87.4656212,22.1828983 84.7969558,25.1256641 C82.0858827,28.1151932 80.1005642,30.4909854 77.5592128,33.9707026 C77.1422781,34.5415859 76.3414935,34.6663858 75.7706102,34.2494511 C75.199727,33.8325164 75.074927,33.0317317 75.4918617,32.4608485 C78.0939121,28.8980198 80.1338109,26.4569125 82.9006013,23.4059432 C85.0841157,20.9981586 85.507525,20.4729009 85.6321632,20.0032052 C85.6947638,19.7672967 85.4778804,19.415802 84.3239008,18.4002192 C84.441332,18.5035669 79.6425065,14.5226431 77.4741748,12.5660897 Z" id="Path-2" transform="translate(81.731944, 22.415814) rotate(40.000000) translate(-81.731944, -22.415814) "></path>
                <path d="M81.1814671,18.1349791 C81.7413513,18.5665715 81.8453523,19.370322 81.4137599,19.9302061 C80.9821675,20.4900903 80.178417,20.5940913 79.6185329,20.1624989 C51.1100799,-1.81353248 29.4162371,-2.97730213 2.83953782,20.1149565 C2.30591064,20.5786204 1.49744644,20.521904 1.03378251,19.9882768 C0.57011857,19.4546496 0.626834991,18.6461854 1.16046218,18.1825215 C28.7310806,-5.77334466 51.7696261,-4.53743822 81.1814671,18.1349791 Z" id="Path-3"></path>
            </g>
            <path d="M18.3460938,31.7546875 C19.300786,31.7546875 19.9169257,31.9984351 20.1945313,32.4859375 L20.2351562,32.8210937 C20.2351562,33.7893278 18.2750196,34.490102 14.3546875,34.9234375 L12.6890625,34.8726562 L12.2523437,34.9234375 C12.0289051,36.4739661 11.9171875,37.8789 11.9171875,39.1382812 L12.2929688,46.6335937 L12.2929688,48.8578125 C12.2929688,49.3385441 12.1812511,49.6229162 11.9578125,49.7109375 C11.2062462,49.9885431 10.5697943,50.1273437 10.0484375,50.1273437 C9.41874685,48.2247301 9.10390625,45.7974106 9.10390625,42.8453125 C9.02265584,41.7348903 8.98203125,40.6786508 8.98203125,39.6765625 L9.06328125,35.3804687 C8.67734182,35.2111971 8.09505598,35.1265625 7.31640625,35.1265625 L3.1828125,35.2484375 L2.4515625,35.2484375 C1.25988988,35.2484375 0.6640625,35.0622414 0.6640625,34.6898437 L0.6640625,34.4359375 C0.6640625,33.901039 1.01614231,33.4033877 1.7203125,32.9429687 C3.77865612,32.5841128 6.324464,32.4046875 9.3578125,32.4046875 C11.4635522,32.4046875 13.938267,32.2015645 16.7820313,31.7953125 L18.3460938,31.7546875 Z M25.9328125,38.2242187 C26.7791709,38.2242187 27.2023438,38.4171856 27.2023438,38.803125 C27.2971359,39.209377 27.4427074,39.5106761 27.6390625,39.7070312 L27.6390625,39.7882812 C25.2286338,41.0070373 23.4817762,42.9807155 22.3984375,45.709375 C21.8838516,47.1651114 21.6265625,48.34661 21.6265625,49.2539062 C20.8208293,49.6263039 20.2825534,49.8125 20.0117188,49.8125 C20.0117188,49.4942692 19.6697951,49.182814 18.9859375,48.878125 C18.9859375,48.417706 18.6135454,46.5794432 17.86875,43.3632812 C17.6994783,42.6997363 17.6148437,42.0192743 17.6148437,41.321875 L17.6148437,40.7632812 C17.7367194,40.316404 18.1463507,40.0523442 18.84375,39.9710937 L18.9453125,39.9710937 C19.7781292,39.9710937 20.2859366,40.5533796 20.46875,41.7179687 L20.4179688,42.3882812 C21.0476594,41.8466119 21.9447858,40.9088608 23.109375,39.575 C24.077609,38.6744747 24.9848916,38.2242187 25.83125,38.2242187 L25.9328125,38.2242187 Z M36.2414062,35.5226562 C36.6273457,35.5226562 36.9388009,35.6817692 37.1757812,36 C37.4398451,40.9901291 37.571875,44.5955618 37.571875,46.8164062 L37.571875,47.13125 L38.0289063,53.5601562 C38.0153645,56.2346488 36.9625105,58.0221309 34.8703125,58.9226562 C34.3828101,59.0716153 33.9190126,59.1460937 33.4789062,59.1460937 C31.7455642,59.1460937 29.9953213,58.1203228 28.228125,56.06875 C27.8015604,55.5135389 27.5882812,54.9888046 27.5882812,54.4945312 C27.906512,54.1627588 28.2450503,53.996875 28.6039062,53.996875 C28.8679701,53.996875 29.4231729,54.3218717 30.2695312,54.971875 C30.384636,55.0666671 30.6283836,55.1208333 31.0007812,55.134375 L32.9507813,56.3226562 C33.2013033,56.4174484 33.4315094,56.4648437 33.6414063,56.4648437 L33.7226562,56.4648437 C34.5690146,56.4648437 35.1242174,55.7099034 35.3882813,54.2 C35.5236986,53.4213503 35.5914063,52.3244862 35.5914063,50.909375 C35.5914063,48.5937384 35.3375025,46.1122528 34.8296875,43.4648437 C34.3557268,43.9794297 33.6481818,45.0119714 32.7070312,46.5625 C31.8606729,47.4833379 31.2513039,47.94375 30.8789062,47.94375 C30.4591125,48.1333343 29.8903682,48.228125 29.1726562,48.228125 L29,48.228125 C28.5734354,48.228125 28.1705748,47.6593807 27.7914062,46.521875 C27.6559889,45.8854135 27.5882812,45.2218785 27.5882812,44.53125 C27.5882812,42.8656167 27.913278,40.8750116 28.5632812,38.559375 C28.881512,37.9093717 29.2369772,37.584375 29.6296875,37.584375 L29.89375,37.584375 C30.198439,37.584375 30.5539042,37.7638003 30.9601562,38.1226562 L30.9601562,38.2242187 C30.9601562,38.874222 30.6893256,40.2757705 30.1476562,42.4289062 C29.9783846,43.0247426 29.89375,43.7255168 29.89375,44.53125 L29.934375,45.2117187 L30.0664062,45.2117187 C30.4252622,45.2117187 30.9499965,44.7817751 31.640625,43.921875 C31.7692715,43.921875 31.9385406,43.6239613 32.1484375,43.028125 C33.6312574,40.2588403 34.3726563,38.5390659 34.3726563,37.86875 C34.4809901,37.4692688 34.5351562,37.0325545 34.5351562,36.5585937 L34.5351562,36.4773437 C34.8263035,36.2268217 35.0971342,35.9085957 35.3476562,35.5226562 L36.2414062,35.5226562 Z M47.2101563,33.521875 C47.9075556,33.521875 48.3239577,33.6945295 48.459375,34.0398437 L48.58125,34.5476562 C48.58125,35.069013 48.0294326,35.4278636 46.9257813,35.6242187 L46.63125,35.6242187 C45.8255168,35.5700518 45.4226563,35.3263042 45.4226563,34.8929687 L45.3820313,34.7304687 L45.3820313,34.5070312 C45.5919281,33.8502571 46.1200479,33.521875 46.9664063,33.521875 L47.2101563,33.521875 Z M47.8601562,38.0820312 C48.178387,39.8830819 48.3375,41.7755109 48.3375,43.759375 L48.3375,44.9476562 L48.25625,49.3351562 C48.0328114,49.4841153 47.7044292,49.6026037 47.2710937,49.690625 L46.9664062,50.015625 L46.9257812,50.015625 C46.6888009,50.015625 46.4721364,49.8361997 46.2757812,49.4773437 C46.2757812,49.6466154 46.2486982,49.73125 46.1945312,49.73125 C45.7747375,49.3656232 45.5648437,48.5802144 45.5648437,47.375 L45.940625,42.3882812 C45.8864581,41.7315071 45.859375,40.7260484 45.859375,39.371875 C45.859375,38.2343693 46.2554648,37.665625 47.0476562,37.665625 C47.5893256,37.665625 47.8601562,37.8044257 47.8601562,38.0820312 Z M53.9742188,30.2007812 C54.5971385,30.2007812 55.0406237,30.5122365 55.3046875,31.1351562 C54.7630181,34.4731938 54.4921875,37.1070216 54.4921875,39.0367187 L54.4921875,40.7835937 L55.0507813,40.8242187 C56.2559956,40.8242187 57.5864511,40.6380227 59.0421875,40.265625 L59.7328125,40.225 C60.3557323,40.225 60.6671875,40.5229137 60.6671875,41.11875 C60.6671875,42.0057336 60.0713601,42.5304679 58.8796875,42.6929687 C58.3515599,42.835157 56.9872506,42.9908846 54.7867188,43.1601562 C54.7867188,43.2143232 54.6885426,43.2414062 54.4921875,43.2414062 L54.7460938,45.9226562 C54.7460938,46.2950539 54.6614592,46.6268215 54.4921875,46.9179687 C54.6885426,47.1549491 54.7867188,47.4799459 54.7867188,47.8929687 L54.7867188,48.309375 C54.7867188,49.2437547 54.6885426,49.7447913 54.4921875,49.8125 L53.4257813,49.73125 C53.3039056,49.73125 53.1583342,49.8260407 52.9890625,50.015625 C52.2578088,49.6973942 51.8921875,48.519281 51.8921875,46.48125 C51.8921875,44.6395741 51.7940114,43.71875 51.5976563,43.71875 C51.3471342,43.4546862 50.4804762,43.3226562 48.9976563,43.3226562 C48.3341113,43.3226562 47.8635431,42.9671911 47.5859375,42.25625 L47.5859375,42.134375 C47.91771,41.4031213 48.6726504,41.0375 49.8507813,41.0375 C50.473701,41.0510417 50.7851563,41.0916663 50.7851563,41.159375 C50.9950531,41.159375 51.1473954,40.9867205 51.2421875,40.6414062 L51.3742188,40.5601562 L51.7296875,40.5601562 L51.6789063,40.0117187 C51.6789062,37.655457 51.9226538,34.6119978 52.4101563,30.88125 C52.7690122,30.4276019 53.2328097,30.2007812 53.8015625,30.2007812 L53.9742188,30.2007812 Z M70.559375,40.225 C71.9474028,40.225 72.9088515,41.0713457 73.44375,42.7640625 C73.5994799,43.2177106 73.6773438,43.7153619 73.6773438,44.2570312 L73.6773438,44.6328125 C73.6773438,46.5625096 72.9427157,48.1164004 71.4734375,49.2945312 C70.6677043,49.7752628 69.9533885,50.015625 69.3304688,50.015625 L69.1882813,50.015625 C67.7460865,50.015625 66.7237009,49.0948009 66.1210938,47.253125 C65.9856764,46.7791643 65.9179688,46.2882838 65.9179688,45.7804687 L65.9179688,45.5671875 C65.9179688,44.3213479 66.097394,43.1567762 66.45625,42.0734375 C66.5104169,41.9786454 66.8455698,41.8059908 67.4617188,41.5554687 C67.6106778,41.4268223 67.8578108,41.1221378 68.203125,40.6414062 C68.6500022,40.3638007 69.4218695,40.225 70.51875,40.225 L70.559375,40.225 Z M68.5992188,43.88125 L68.5382813,45.8210937 C68.5924482,46.9112034 68.8361958,47.45625 69.2695312,47.45625 C69.8518258,47.198957 70.3156233,46.7554719 70.6609375,46.1257812 C70.9385431,45.5705701 71.0773438,45.039065 71.0773438,44.53125 L71.0773438,44.3789062 C71.0773438,43.5664022 70.7794301,42.8893256 70.1835938,42.3476562 C69.7367165,42.3476562 69.3270852,42.6320284 68.9546875,43.2007812 C68.7854158,43.4039073 68.6601567,43.5190103 68.5789063,43.5460937 L68.5992188,43.88125 Z M80.8273438,40.9257812 C81.3419297,40.9257812 81.7380194,41.1492165 82.015625,41.5960937 C82.2390636,44.0945437 82.6283826,46.1460857 83.1835938,47.7507812 C83.5695332,48.1841167 83.7625,48.6208311 83.7625,49.0609375 L83.7625,49.3960937 C83.7625,49.6195324 83.6778654,49.7921869 83.5085938,49.9140625 L82.990625,49.9140625 C81.9546823,49.9140625 81.1151074,48.9492284 80.471875,47.0195312 L80.1875,46.5828125 C78.961973,47.9302151 78.0817735,48.76979 77.546875,49.1015625 L77.0898438,49.0203125 C76.974739,49.0203125 76.612503,49.1455717 76.003125,49.3960937 L75.8,49.4367187 C75.2177054,49.4367187 74.8622402,48.8002668 74.7335938,47.5273437 L74.6929688,46.8976562 L74.6929688,46.4609375 C74.6929688,44.5041569 75.1161416,42.869017 75.9625,41.5554687 C76.2807308,41.1966128 76.592186,41.0171875 76.896875,41.0171875 C77.2828144,41.0171875 77.6721335,41.2846327 78.0648438,41.8195312 C78.0648438,42.2257833 77.8346377,43.1770759 77.3742188,44.6734375 C77.2929683,44.9375013 77.2523438,45.306508 77.2523438,45.7804687 L77.2523438,45.9429687 C77.8888053,45.624738 78.444008,44.8054754 78.9179688,43.4851562 C79.5815137,41.8059812 80.0317696,40.9664062 80.26875,40.9664062 L80.8273438,40.9257812 Z M89.1554687,30.2007812 C89.7783885,30.2007812 90.2218737,30.5122365 90.4859375,31.1351562 C89.9442681,34.4731938 89.6734375,37.1070216 89.6734375,39.0367187 L89.6734375,40.7835937 L90.2320313,40.8242187 C91.4372456,40.8242187 92.7677011,40.6380227 94.2234375,40.265625 L94.9140625,40.225 C95.5369823,40.225 95.8484375,40.5229137 95.8484375,41.11875 C95.8484375,42.0057336 95.2526101,42.5304679 94.0609375,42.6929687 C93.5328099,42.835157 92.1685006,42.9908846 89.9679687,43.1601562 C89.9679687,43.2143232 89.8697926,43.2414062 89.6734375,43.2414062 L89.9273438,45.9226562 C89.9273438,46.2950539 89.8427092,46.6268215 89.6734375,46.9179687 C89.8697926,47.1549491 89.9679687,47.4799459 89.9679687,47.8929687 L89.9679687,48.309375 C89.9679687,49.2437547 89.8697926,49.7447913 89.6734375,49.8125 L88.6070313,49.73125 C88.4851556,49.73125 88.3395842,49.8260407 88.1703125,50.015625 C87.4390588,49.6973942 87.0734375,48.519281 87.0734375,46.48125 C87.0734375,44.6395741 86.9752614,43.71875 86.7789063,43.71875 C86.5283842,43.4546862 85.6617262,43.3226562 84.1789062,43.3226562 C83.5153613,43.3226562 83.0447931,42.9671911 82.7671875,42.25625 L82.7671875,42.134375 C83.09896,41.4031213 83.8539004,41.0375 85.0320313,41.0375 C85.654951,41.0510417 85.9664063,41.0916663 85.9664063,41.159375 C86.1763031,41.159375 86.3286454,40.9867205 86.4234375,40.6414062 L86.5554688,40.5601562 L86.9109375,40.5601562 L86.8601563,40.0117187 C86.8601563,37.655457 87.1039038,34.6119978 87.5914063,30.88125 C87.9502622,30.4276019 88.4140597,30.2007812 88.9828125,30.2007812 L89.1554687,30.2007812 Z" id="Try-it-out"></path>
        </g>
    </g>
</svg>