<?xml version="1.0" encoding="UTF-8"?>
<svg width="40px" height="40px" viewBox="0 0 40 40" version="1.1" xmlns="http://www.w3.org/2000/svg" xmlns:xlink="http://www.w3.org/1999/xlink">
    <title>Group 48</title>
    <g id="Marketing-2.0" stroke="none" stroke-width="1" fill="none" fill-rule="evenodd">
        <g id="Homt" transform="translate(-169.000000, -2767.000000)">
            <g id="Group-48" transform="translate(169.000000, 2767.000000)">
                <path d="M37.6455212,35.8284158 C40.5775486,32.3257501 40.7710848,11.0252172 38.2264416,5.17128709 C38.2482572,5.16676813 38.2608792,5.16380743 38.2608792,5.16380743 C38.2608792,5.16380743 37.6715442,3.49366015 35.7790339,2.31561262 C32.1369061,-0.57761602 11.0229118,-0.759621247 5.18114017,1.76944111 C5.18020521,1.76492214 5.17927025,1.76133814 5.17927025,1.76133814 C5.17927025,1.76133814 3.60261989,2.31717088 2.4325203,4.08424218 C-0.577264417,7.30299215 -0.794018782,28.9722103 1.78225721,34.8488911 C1.78023147,34.8493586 1.77664746,34.8501377 1.77664746,34.8501377 C1.77664746,34.8501377 2.34619254,36.4659016 4.16530861,37.6398976 C7.6562849,40.5843931 29.076322,40.7737222 34.8721249,38.207729 C35.0237439,38.1506965 36.5318307,37.5513882 37.6455212,35.8284158" id="Fill-1" fill="#07D19F"></path>
                <g id="tool-icon-v2-/-demo" transform="translate(10.000000, 10.000000)" fill="#FFFFFF">
                    <g id="Group-22" transform="translate(0.347725, 0.347725)">
                        <path d="M2.43217823,0.830627238 C5.17447613,-0.356588357 15.0860006,-0.271149798 16.7957215,1.08701606 C17.684121,1.64002592 17.960772,2.42404174 17.960772,2.42404174 C17.960772,2.42404174 17.9548469,2.42543158 17.944606,2.42755291 C19.1391357,5.17555835 19.0482842,15.1746494 17.671905,16.8189028 C17.1491063,17.6277163 16.4411664,17.9090491 16.369992,17.9358218 C13.6492732,19.1403738 3.59408332,19.0514972 1.95531728,17.6692652 C1.10137117,17.1181572 0.83401011,16.3596706 0.83401011,16.3596706 L0.83401011,16.3596706 C-0.372735563,13.6004001 -0.270984745,3.4282374 1.14189594,1.91726234 C1.69117479,1.08774756 2.43130044,0.826823466 2.43130044,0.826823466 C2.43130044,0.826823466 2.43173933,0.828505904 2.43217823,0.830627238 Z M15.3346856,13.6916836 L3.44248044,13.6916836 L3.35123818,13.6969472 C2.96212939,13.7421416 2.66009852,14.072832 2.66009852,14.4740655 C2.66009852,14.9061631 3.01038284,15.2564474 3.44248044,15.2564474 L3.44248044,15.2564474 L15.3346856,15.2564474 L15.4259279,15.2511838 C15.8150367,15.2059894 16.1170675,14.875299 16.1170675,14.4740655 C16.1170675,14.0419679 15.7667832,13.6916836 15.3346856,13.6916836 L15.3346856,13.6916836 Z M15.3346856,10.5621559 L3.44248044,10.5621559 L3.35123818,10.5674196 C2.96212939,10.6126139 2.66009852,10.9433043 2.66009852,11.3445378 C2.66009852,11.7766354 3.01038284,12.1269197 3.44248044,12.1269197 L3.44248044,12.1269197 L15.3346856,12.1269197 L15.4259279,12.1216561 C15.8150367,12.0764617 16.1170675,11.7457713 16.1170675,11.3445378 C16.1170675,10.9124402 15.7667832,10.5621559 15.3346856,10.5621559 L15.3346856,10.5621559 Z M15.3346856,7.43262822 L3.44248044,7.43262822 L3.35123818,7.43789188 C2.96212939,7.48308626 2.66009852,7.81377665 2.66009852,8.21501014 C2.66009852,8.64710774 3.01038284,8.99739206 3.44248044,8.99739206 L3.44248044,8.99739206 L15.3346856,8.99739206 L15.4259279,8.9921284 C15.8150367,8.94693403 16.1170675,8.61624363 16.1170675,8.21501014 C16.1170675,7.78291254 15.7667832,7.43262822 15.3346856,7.43262822 L15.3346856,7.43262822 Z M15.3346856,4.30310055 L3.44248044,4.30310055 L3.35123818,4.30836421 C2.96212939,4.35355858 2.66009852,4.68424898 2.66009852,5.08548247 C2.66009852,5.51758007 3.01038284,5.86786439 3.44248044,5.86786439 L3.44248044,5.86786439 L15.3346856,5.86786439 L15.4259279,5.86260073 C15.8150367,5.81740636 16.1170675,5.48671596 16.1170675,5.08548247 C16.1170675,4.65338487 15.7667832,4.30310055 15.3346856,4.30310055 L15.3346856,4.30310055 Z" id="Combined-Shape"></path>
                    </g>
                </g>
            </g>
        </g>
    </g>
</svg>