<?xml version="1.0" encoding="UTF-8"?>
<svg width="40px" height="40px" viewBox="0 0 40 40" version="1.1" xmlns="http://www.w3.org/2000/svg" xmlns:xlink="http://www.w3.org/1999/xlink">
    <title>Group 50</title>
    <g id="Marketing-2.0" stroke="none" stroke-width="1" fill="none" fill-rule="evenodd">
        <g id="Homt" transform="translate(-169.000000, -2997.000000)">
            <g id="Group-50" transform="translate(169.000000, 2997.000000)">
                <path d="M37.6455212,35.8284158 C40.5775486,32.3257501 40.7710848,11.0252172 38.2264416,5.17128709 C38.2482572,5.16676813 38.2608792,5.16380743 38.2608792,5.16380743 C38.2608792,5.16380743 37.6715442,3.49366015 35.7790339,2.31561262 C32.1369061,-0.57761602 11.0229118,-0.759621247 5.18114017,1.76944111 C5.18020521,1.76492214 5.17927025,1.76133814 5.17927025,1.76133814 C5.17927025,1.76133814 3.60261989,2.31717088 2.4325203,4.08424218 C-0.577264417,7.30299215 -0.794018782,28.9722103 1.78225721,34.8488911 C1.78023147,34.8493586 1.77664746,34.8501377 1.77664746,34.8501377 C1.77664746,34.8501377 2.34619254,36.4659016 4.16530861,37.6398976 C7.6562849,40.5843931 29.076322,40.7737222 34.8721249,38.207729 C35.0237439,38.1506965 36.5318307,37.5513882 37.6455212,35.8284158" id="Fill-1" fill="#4D4DD7"></path>
                <g id="tool-icon-v2-/-demo" transform="translate(11.000000, 10.000000)" fill="#FFFFFF">
                    <g id="Group-15" transform="translate(0.347725, 0.347725)">
                        <path d="M7.06021585,3.42743877 C7.70836225,3.42743877 8.23378873,3.95286525 8.23378873,4.60101165 C8.23378873,5.21103179 7.76835905,5.71234501 7.17323875,5.76921224 L7.06021585,5.77458453 L2.73755433,5.77397856 L2.73755433,16.2 L12.7184005,16.2 L12.7187294,11.6027421 C12.7187294,10.992722 13.184159,10.4914087 13.7792793,10.4345415 L13.8923022,10.4291692 C14.5023224,10.4291692 15.0036356,10.8945989 15.0605028,11.4897192 L15.0658751,11.6027421 L15.0658751,16.5914309 C15.0658751,17.6284651 14.2588201,18.4770016 13.2385249,18.5432252 L13.1099203,18.5473857 L2.34714575,18.5473857 C1.31011151,18.5473857 0.461575076,17.7403306 0.395351416,16.7200355 L0.391190959,16.5914309 L0.391190959,5.38339357 C0.391190959,4.34635932 1.19824602,3.49782289 2.21854119,3.43159923 L2.34714575,3.42743877 L7.06021585,3.42743877 Z M16.3722897,0.391190959 C16.5253924,0.391190959 16.6743866,0.408781639 16.8173614,0.442052176 C17.2175966,0.320901143 17.6686728,0.419082318 17.984513,0.734922497 C18.3004816,1.0508911 18.3986141,1.50220568 18.2789106,1.90224495 C18.3011799,2.00413575 18.3170478,2.11013483 18.324084,2.21854119 L18.3282445,2.34714575 L18.3282445,8.4127147 C18.3282445,9.0608611 17.802818,9.58628758 17.1546716,9.58628758 C16.5446515,9.58628758 16.0433383,9.1208579 15.986471,8.5257376 L15.9810987,8.4127147 L15.980191,4.39819096 L7.0005893,13.3785288 C6.54228059,13.8368376 5.79921534,13.8368376 5.34090662,13.3785288 C4.9112422,12.9488644 4.88438817,12.2689257 5.26034454,11.807977 L5.34090662,11.7188462 L14.320191,2.73819096 L10.1611907,2.73833671 C9.55117055,2.73833671 9.04985733,2.27290703 8.99299011,1.67778674 L8.98761782,1.56476384 C8.98761782,0.954743693 9.4530475,0.453430475 10.0481678,0.396563246 L10.1611907,0.391190959 L16.3722897,0.391190959 Z" id="Combined-Shape"></path>
                    </g>
                </g>
            </g>
        </g>
    </g>
</svg>