<?xml version="1.0" encoding="UTF-8"?>
<svg width="44px" height="44px" viewBox="0 0 44 44" version="1.1" xmlns="http://www.w3.org/2000/svg" xmlns:xlink="http://www.w3.org/1999/xlink">
    <title>Group 54</title>
    <g id="Marketing-2.0" stroke="none" stroke-width="1" fill="none" fill-rule="evenodd">
        <g id="Pricing" transform="translate(-771.000000, -347.000000)">
            <g id="Group-5" transform="translate(273.000000, 347.000000)">
                <g id="Group-54" transform="translate(498.000000, 0.000000)">
                    <path d="M41.4100733,39.4112574 C44.6353034,35.5583252 44.8481933,12.1277389 42.0490857,5.6884158 C42.073083,5.68344494 42.0869671,5.68018817 42.0869671,5.68018817 C42.0869671,5.68018817 41.4386986,3.84302616 39.3569373,2.54717388 C35.3505967,-0.635377622 12.125203,-0.835583371 5.69925418,1.94638522 C5.69822573,1.94141436 5.69719727,1.93747195 5.69719727,1.93747195 C5.69719727,1.93747195 3.96288187,2.54888797 2.67577233,4.49266639 C-0.634990859,8.03329136 -0.87342066,31.8694314 1.96048293,38.3337802 C1.95825461,38.3342944 1.95431221,38.3351515 1.95431221,38.3351515 C1.95431221,38.3351515 2.58081179,40.1124917 4.58183947,41.4038874 C8.42191339,44.6428325 31.9839542,44.8510944 38.3593374,42.0285019 C38.5261183,41.9657662 40.1850138,41.3065271 41.4100733,39.4112574" id="Fill-1" fill="#764FFF"></path>
                    <g id="tool-icon-v2-/-live-chat" transform="translate(11.000000, 11.000000)" fill="#FFFFFF">
                        <g id="Group-12" transform="translate(1.571429, 2.357143)">
                            <g id="Group-11">
                                <path d="M16.8672588,0.866099265 C17.7594422,1.30671964 18.0372716,1.9313981 18.0372716,1.9313981 C18.0372716,1.9313981 18.0313213,1.93250548 18.0210367,1.93419569 C19.2206543,4.1237176 19.1294158,12.0906702 17.7471743,13.4007581 C17.2221488,14.0451946 16.5111936,14.2693514 16.439716,14.2906831 C15.5143245,14.6157354 13.7440301,14.8225745 11.7433576,14.9112025 L10.3843198,17.1922333 C10.335466,17.274204 10.2720259,17.346544 10.1971334,17.4056795 C9.88633304,17.6510892 9.44711039,17.6229479 9.16985261,17.3553947 L9.09847068,17.2765155 L7.2861221,14.9812573 C7.26983268,14.9606275 7.25465337,14.9392672 7.24061612,14.9172685 C4.7807205,14.8143146 2.64589743,14.534856 1.96364549,14.0782994 C1.15966115,13.6666384 0.87342596,13.1097535 0.840787125,13.0417509 L0.837562375,13.0348567 C-0.37432314,10.8363592 -0.27213894,2.73150875 1.14675957,1.52761266 C1.62942565,0.949298416 2.25883115,0.71783885 2.40864087,0.669010119 L2.44165597,0.658786212 L2.44253751,0.661816935 C5.19651557,-0.284118077 15.1502557,-0.216043394 16.8672588,0.866099265 Z M15.4,8.64285714 L3.45714286,8.64285714 L3.36551197,8.64814322 C2.97474586,8.69353009 2.67142857,9.02562898 2.67142857,9.42857143 C2.67142857,9.86250945 3.02320484,10.2142857 3.45714286,10.2142857 L3.45714286,10.2142857 L15.4,10.2142857 L15.4916309,10.2089996 C15.882397,10.1636128 16.1857143,9.83151387 16.1857143,9.42857143 C16.1857143,8.99463341 15.833938,8.64285714 15.4,8.64285714 L15.4,8.64285714 Z M15.4,5.21428571 L3.45714286,5.21428571 L3.36551197,5.21957179 C2.97474586,5.26495866 2.67142857,5.59705755 2.67142857,6 C2.67142857,6.43393802 3.02320484,6.78571429 3.45714286,6.78571429 L3.45714286,6.78571429 L15.4,6.78571429 L15.4916309,6.78042821 C15.882397,6.73504134 16.1857143,6.40294245 16.1857143,6 C16.1857143,5.56606198 15.833938,5.21428571 15.4,5.21428571 L15.4,5.21428571 Z" id="Combined-Shape"></path>
                            </g>
                        </g>
                    </g>
                </g>
            </g>
        </g>
    </g>
</svg>