<?xml version="1.0" encoding="UTF-8"?>
<svg width="40px" height="40px" viewBox="0 0 40 40" version="1.1" xmlns="http://www.w3.org/2000/svg" xmlns:xlink="http://www.w3.org/1999/xlink">
    <title>Group 49</title>
    <g id="Marketing-2.0" stroke="none" stroke-width="1" fill="none" fill-rule="evenodd">
        <g id="Homt" transform="translate(-169.000000, -2920.000000)">
            <g id="Group-49" transform="translate(169.000000, 2920.000000)">
                <path d="M37.6455212,35.8284158 C40.5775486,32.3257501 40.7710848,11.0252172 38.2264416,5.17128709 C38.2482572,5.16676813 38.2608792,5.16380743 38.2608792,5.16380743 C38.2608792,5.16380743 37.6715442,3.49366015 35.7790339,2.31561262 C32.1369061,-0.57761602 11.0229118,-0.759621247 5.18114017,1.76944111 C5.18020521,1.76492214 5.17927025,1.76133814 5.17927025,1.76133814 C5.17927025,1.76133814 3.60261989,2.31717088 2.4325203,4.08424218 C-0.577264417,7.30299215 -0.794018782,28.9722103 1.78225721,34.8488911 C1.78023147,34.8493586 1.77664746,34.8501377 1.77664746,34.8501377 C1.77664746,34.8501377 2.34619254,36.4659016 4.16530861,37.6398976 C7.6562849,40.5843931 29.076322,40.7737222 34.8721249,38.207729 C35.0237439,38.1506965 36.5318307,37.5513882 37.6455212,35.8284158" id="Fill-1" fill="#04AFFF"></path>
                <g id="tool-icon-v2-/-demo" transform="translate(10.000000, 11.000000)" fill="#FFFFFF">
                    <g id="Group-23" transform="translate(0.347725, 0.521588)">
                        <path d="M2.43217823,0.761408301 C5.17447613,-0.32687266 15.0860006,-0.248553981 16.7957215,0.996431393 C17.684121,1.50335709 17.960772,2.22203826 17.960772,2.22203826 C17.960772,2.22203826 17.9548469,2.22331228 17.944606,2.22525683 C19.1391357,4.74426182 19.0482842,13.9100953 17.671905,15.4173276 C17.1491063,16.1587399 16.4411664,16.4166283 16.369992,16.44117 C13.6492732,17.5453426 3.59408332,17.4638724 1.95531728,16.1968264 C1.10137117,15.6916441 0.83401011,14.9963647 0.83401011,14.9963647 C0.83401011,14.9963647 0.835692546,14.9960294 0.836643489,14.9958282 C-0.372735563,12.4670334 -0.270984745,3.14255095 1.14189594,1.75749048 C1.69117479,0.997101929 2.43130044,0.757921511 2.43130044,0.757921511 C2.43130044,0.757921511 2.43173933,0.759463745 2.43217823,0.761408301 Z M6.25557809,4.10201254 C5.82540093,4.10201254 5.47667343,4.45074004 5.47667343,4.88091721 L5.47667343,4.88091721 L5.47667343,12.3219442 C5.47667343,12.4509308 5.50870632,12.5778984 5.56989606,12.6914474 C5.77396704,13.0701391 6.24638957,13.2116972 6.6250813,13.0076262 L6.6250813,13.0076262 L13.5829247,9.25815442 C13.7184657,9.18511351 13.829319,9.07354038 13.901481,8.9375294 C14.1030964,8.55752464 13.9584833,8.08602832 13.5784785,7.8844129 L13.5784785,7.8844129 L6.62063511,4.19285773 C6.50819967,4.13320395 6.3828585,4.10201254 6.25557809,4.10201254 Z" id="Combined-Shape"></path>
                    </g>
                </g>
            </g>
        </g>
    </g>
</svg>